<?xml version="1.0" encoding="UTF-8" standalone="no"?>
<!DOCTYPE svg PUBLIC "-//W3C//DTD SVG 1.1//EN"
 "http://www.w3.org/Graphics/SVG/1.1/DTD/svg11.dtd">
<!-- Generated by graphviz version 2.49.0 (0)
 -->
<!-- Title: graphname Pages: 1 -->
<svg width="134pt" height="260pt"
 viewBox="0.00 0.00 134.00 260.00" xmlns="http://www.w3.org/2000/svg" xmlns:xlink="http://www.w3.org/1999/xlink">
<g id="graph0" class="graph" transform="scale(1 1) rotate(0) translate(4 256)">
<title>graphname</title>
<!-- sin -->
<g id="node1" class="node">
<title>sin</title>
<ellipse fill="white" stroke="black" cx="27" cy="-90" rx="27" ry="18"/>
<text text-anchor="middle" x="27" y="-86.3" font-family="Times,serif" font-size="14.00">sin</text>
</g>
<!-- x -->
<g id="node5" class="node">
<title>x</title>
<ellipse fill="white" stroke="black" cx="27" cy="-18" rx="27" ry="18"/>
<text text-anchor="middle" x="27" y="-14.3" font-family="Times,serif" font-size="14.00">x</text>
</g>
<!-- sin&#45;&gt;x -->
<g id="edge1" class="edge">
<title>sin&#45;&gt;x</title>
<path fill="none" stroke="black" d="M27,-71.7C27,-63.98 27,-54.71 27,-46.11"/>
<polygon fill="black" stroke="black" points="30.5,-46.1 27,-36.1 23.5,-46.1 30.5,-46.1"/>
</g>
<!-- plus -->
<g id="node2" class="node">
<title>plus</title>
<ellipse fill="white" stroke="black" cx="63" cy="-162" rx="27" ry="18"/>
<text text-anchor="middle" x="63" y="-158.3" font-family="Times,serif" font-size="14.00">+</text>
</g>
<!-- plus&#45;&gt;sin -->
<g id="edge4" class="edge">
<title>plus&#45;&gt;sin</title>
<path fill="none" stroke="black" d="M54.65,-144.76C50.29,-136.28 44.85,-125.71 39.96,-116.2"/>
<polygon fill="black" stroke="black" points="42.99,-114.44 35.3,-107.15 36.77,-117.64 42.99,-114.44"/>
</g>
<!-- mul -->
<g id="node4" class="node">
<title>mul</title>
<ellipse fill="white" stroke="black" cx="99" cy="-90" rx="27" ry="18"/>
<text text-anchor="middle" x="99" y="-86.3" font-family="Times,serif" font-size="14.00">×</text>
</g>
<!-- plus&#45;&gt;mul -->
<g id="edge5" class="edge">
<title>plus&#45;&gt;mul</title>
<path fill="none" stroke="black" d="M71.35,-144.76C75.71,-136.28 81.15,-125.71 86.04,-116.2"/>
<polygon fill="black" stroke="black" points="89.23,-117.64 90.7,-107.15 83.01,-114.44 89.23,-117.64"/>
</g>
<!-- loss -->
<g id="node3" class="node">
<title>loss</title>
<ellipse fill="white" stroke="black" cx="63" cy="-234" rx="27" ry="18"/>
<text text-anchor="middle" x="63" y="-230.3" font-family="Times,serif" font-size="14.00">ℒ</text>
</g>
<!-- loss&#45;&gt;plus -->
<g id="edge6" class="edge">
<title>loss&#45;&gt;plus</title>
<path fill="none" stroke="black" d="M63,-215.7C63,-207.98 63,-198.71 63,-190.11"/>
<polygon fill="black" stroke="black" points="66.5,-190.1 63,-180.1 59.5,-190.1 66.5,-190.1"/>
</g>
<!-- mul&#45;&gt;x -->
<g id="edge2" class="edge">
<title>mul&#45;&gt;x</title>
<path fill="none" stroke="black" d="M84.43,-74.83C74.25,-64.94 60.48,-51.55 48.97,-40.36"/>
<polygon fill="black" stroke="black" points="51.41,-37.85 41.8,-33.38 46.53,-42.87 51.41,-37.85"/>
</g>
<!-- y -->
<g id="node6" class="node">
<title>y</title>
<ellipse fill="white" stroke="black" cx="99" cy="-18" rx="27" ry="18"/>
<text text-anchor="middle" x="99" y="-14.3" font-family="Times,serif" font-size="14.00">y</text>
</g>
<!-- mul&#45;&gt;y -->
<g id="edge3" class="edge">
<title>mul&#45;&gt;y</title>
<path fill="none" stroke="black" d="M99,-71.7C99,-63.98 99,-54.71 99,-46.11"/>
<polygon fill="black" stroke="black" points="102.5,-46.1 99,-36.1 95.5,-46.1 102.5,-46.1"/>
</g>
</g>
</svg>
