<?xml version="1.0" encoding="UTF-8" standalone="no"?>
<!DOCTYPE svg PUBLIC "-//W3C//DTD SVG 1.1//EN"
 "http://www.w3.org/Graphics/SVG/1.1/DTD/svg11.dtd">
<!-- Generated by graphviz version 2.49.0 (0)
 -->
<!-- Title: graphname Pages: 1 -->
<svg width="152pt" height="275pt"
 viewBox="0.00 0.00 152.00 275.00" xmlns="http://www.w3.org/2000/svg" xmlns:xlink="http://www.w3.org/1999/xlink">
<g id="graph0" class="graph" transform="scale(1 1) rotate(0) translate(4 271)">
<title>graphname</title>
<!-- x -->
<g id="node1" class="node">
<title>x</title>
<ellipse fill="#c6e7ec" stroke="black" cx="45" cy="-33" rx="27" ry="18"/>
<text text-anchor="middle" x="45" y="-29.3" font-family="Times,serif" font-size="14.00">x</text>
<text text-anchor="middle" x="9" y="-3.8" font-family="Times,serif" font-size="14.00">w₁</text>
</g>
<!-- sin -->
<g id="node3" class="node">
<title>sin</title>
<ellipse fill="white" stroke="black" cx="45" cy="-105" rx="27" ry="18"/>
<text text-anchor="middle" x="45" y="-101.3" font-family="Times,serif" font-size="14.00">sin</text>
<text text-anchor="middle" x="9" y="-75.8" font-family="Times,serif" font-size="14.00">w₃</text>
</g>
<!-- x&#45;&gt;sin -->
<g id="edge6" class="edge">
<title>x&#45;&gt;sin</title>
<path fill="none" stroke="black" d="M45,-51.3C45,-59.02 45,-68.29 45,-76.89"/>
<polygon fill="black" stroke="black" points="41.5,-76.9 45,-86.9 48.5,-76.9 41.5,-76.9"/>
</g>
<!-- mul -->
<g id="node5" class="node">
<title>mul</title>
<ellipse fill="white" stroke="black" cx="117" cy="-105" rx="27" ry="18"/>
<text text-anchor="middle" x="117" y="-101.3" font-family="Times,serif" font-size="14.00">×</text>
<text text-anchor="middle" x="81" y="-75.8" font-family="Times,serif" font-size="14.00">w₄</text>
</g>
<!-- x&#45;&gt;mul -->
<g id="edge4" class="edge">
<title>x&#45;&gt;mul</title>
<path fill="none" stroke="black" d="M59.57,-48.17C69.75,-58.06 83.52,-71.45 95.03,-82.64"/>
<polygon fill="black" stroke="black" points="92.59,-85.15 102.2,-89.62 97.47,-80.13 92.59,-85.15"/>
</g>
<!-- y -->
<g id="node2" class="node">
<title>y</title>
<ellipse fill="#c6e7ec" stroke="black" cx="117" cy="-33" rx="27" ry="18"/>
<text text-anchor="middle" x="117" y="-29.3" font-family="Times,serif" font-size="14.00">y</text>
<text text-anchor="middle" x="81" y="-3.8" font-family="Times,serif" font-size="14.00">w₂</text>
</g>
<!-- y&#45;&gt;mul -->
<g id="edge5" class="edge">
<title>y&#45;&gt;mul</title>
<path fill="none" stroke="black" d="M117,-51.3C117,-59.02 117,-68.29 117,-76.89"/>
<polygon fill="black" stroke="black" points="113.5,-76.9 117,-86.9 120.5,-76.9 113.5,-76.9"/>
</g>
<!-- plus -->
<g id="node4" class="node">
<title>plus</title>
<ellipse fill="white" stroke="black" cx="81" cy="-177" rx="27" ry="18"/>
<text text-anchor="middle" x="81" y="-173.3" font-family="Times,serif" font-size="14.00">+</text>
<text text-anchor="middle" x="45" y="-147.8" font-family="Times,serif" font-size="14.00">w₅</text>
</g>
<!-- sin&#45;&gt;plus -->
<g id="edge2" class="edge">
<title>sin&#45;&gt;plus</title>
<path fill="none" stroke="black" d="M53.35,-122.24C57.71,-130.72 63.15,-141.29 68.04,-150.8"/>
<polygon fill="black" stroke="black" points="65.01,-152.56 72.7,-159.85 71.23,-149.36 65.01,-152.56"/>
</g>
<!-- loss -->
<g id="node6" class="node">
<title>loss</title>
<ellipse fill="#ecc6d3" stroke="black" cx="81" cy="-249" rx="27" ry="18"/>
<text text-anchor="middle" x="81" y="-245.3" font-family="Times,serif" font-size="14.00">ℒ</text>
</g>
<!-- plus&#45;&gt;loss -->
<g id="edge1" class="edge">
<title>plus&#45;&gt;loss</title>
<path fill="none" stroke="black" d="M81,-195.3C81,-203.02 81,-212.29 81,-220.89"/>
<polygon fill="black" stroke="black" points="77.5,-220.9 81,-230.9 84.5,-220.9 77.5,-220.9"/>
</g>
<!-- mul&#45;&gt;plus -->
<g id="edge3" class="edge">
<title>mul&#45;&gt;plus</title>
<path fill="none" stroke="black" d="M108.65,-122.24C104.29,-130.72 98.85,-141.29 93.96,-150.8"/>
<polygon fill="black" stroke="black" points="90.77,-149.36 89.3,-159.85 96.99,-152.56 90.77,-149.36"/>
</g>
</g>
</svg>
