<?xml version="1.0" encoding="UTF-8" standalone="no"?>
<!DOCTYPE svg PUBLIC "-//W3C//DTD SVG 1.1//EN"
 "http://www.w3.org/Graphics/SVG/1.1/DTD/svg11.dtd">
<!-- Generated by graphviz version 2.49.0 (0)
 -->
<!-- Title: graphname Pages: 1 -->
<svg width="134pt" height="260pt"
 viewBox="0.00 0.00 134.00 260.00" xmlns="http://www.w3.org/2000/svg" xmlns:xlink="http://www.w3.org/1999/xlink">
<g id="graph0" class="graph" transform="scale(1 1) rotate(0) translate(4 256)">
<title>graphname</title>
<!-- sin -->
<g id="node1" class="node">
<title>sin</title>
<ellipse fill="white" stroke="black" cx="27" cy="-90" rx="27" ry="18"/>
<text text-anchor="middle" x="27" y="-86.3" font-family="Times,serif" font-size="14.00">sin</text>
</g>
<!-- plus -->
<g id="node2" class="node">
<title>plus</title>
<ellipse fill="white" stroke="black" cx="63" cy="-162" rx="27" ry="18"/>
<text text-anchor="middle" x="63" y="-158.3" font-family="Times,serif" font-size="14.00">+</text>
</g>
<!-- sin&#45;&gt;plus -->
<g id="edge2" class="edge">
<title>sin&#45;&gt;plus</title>
<path fill="none" stroke="black" d="M35.35,-107.24C39.71,-115.72 45.15,-126.29 50.04,-135.8"/>
<polygon fill="black" stroke="black" points="47.01,-137.56 54.7,-144.85 53.23,-134.36 47.01,-137.56"/>
</g>
<!-- loss -->
<g id="node3" class="node">
<title>loss</title>
<ellipse fill="white" stroke="black" cx="63" cy="-234" rx="27" ry="18"/>
<text text-anchor="middle" x="63" y="-230.3" font-family="Times,serif" font-size="14.00">ℒ</text>
</g>
<!-- plus&#45;&gt;loss -->
<g id="edge1" class="edge">
<title>plus&#45;&gt;loss</title>
<path fill="none" stroke="black" d="M63,-180.3C63,-188.02 63,-197.29 63,-205.89"/>
<polygon fill="black" stroke="black" points="59.5,-205.9 63,-215.9 66.5,-205.9 59.5,-205.9"/>
</g>
<!-- mul -->
<g id="node4" class="node">
<title>mul</title>
<ellipse fill="white" stroke="black" cx="99" cy="-90" rx="27" ry="18"/>
<text text-anchor="middle" x="99" y="-86.3" font-family="Times,serif" font-size="14.00">×</text>
</g>
<!-- mul&#45;&gt;plus -->
<g id="edge3" class="edge">
<title>mul&#45;&gt;plus</title>
<path fill="none" stroke="black" d="M90.65,-107.24C86.29,-115.72 80.85,-126.29 75.96,-135.8"/>
<polygon fill="black" stroke="black" points="72.77,-134.36 71.3,-144.85 78.99,-137.56 72.77,-134.36"/>
</g>
<!-- x -->
<g id="node5" class="node">
<title>x</title>
<ellipse fill="white" stroke="black" cx="27" cy="-18" rx="27" ry="18"/>
<text text-anchor="middle" x="27" y="-14.3" font-family="Times,serif" font-size="14.00">x</text>
</g>
<!-- x&#45;&gt;sin -->
<g id="edge6" class="edge">
<title>x&#45;&gt;sin</title>
<path fill="none" stroke="black" d="M27,-36.3C27,-44.02 27,-53.29 27,-61.89"/>
<polygon fill="black" stroke="black" points="23.5,-61.9 27,-71.9 30.5,-61.9 23.5,-61.9"/>
</g>
<!-- x&#45;&gt;mul -->
<g id="edge4" class="edge">
<title>x&#45;&gt;mul</title>
<path fill="none" stroke="black" d="M41.57,-33.17C51.75,-43.06 65.52,-56.45 77.03,-67.64"/>
<polygon fill="black" stroke="black" points="74.59,-70.15 84.2,-74.62 79.47,-65.13 74.59,-70.15"/>
</g>
<!-- y -->
<g id="node6" class="node">
<title>y</title>
<ellipse fill="white" stroke="black" cx="99" cy="-18" rx="27" ry="18"/>
<text text-anchor="middle" x="99" y="-14.3" font-family="Times,serif" font-size="14.00">y</text>
</g>
<!-- y&#45;&gt;mul -->
<g id="edge5" class="edge">
<title>y&#45;&gt;mul</title>
<path fill="none" stroke="black" d="M99,-36.3C99,-44.02 99,-53.29 99,-61.89"/>
<polygon fill="black" stroke="black" points="95.5,-61.9 99,-71.9 102.5,-61.9 95.5,-61.9"/>
</g>
</g>
</svg>
