<?xml version="1.0" encoding="UTF-8" standalone="no"?>
<!DOCTYPE svg PUBLIC "-//W3C//DTD SVG 1.1//EN"
 "http://www.w3.org/Graphics/SVG/1.1/DTD/svg11.dtd">
<!-- Generated by graphviz version 2.49.0 (0)
 -->
<!-- Title: graphname Pages: 1 -->
<svg width="152pt" height="260pt"
 viewBox="0.00 0.00 152.00 260.00" xmlns="http://www.w3.org/2000/svg" xmlns:xlink="http://www.w3.org/1999/xlink">
<g id="graph0" class="graph" transform="scale(1 1) rotate(0) translate(4 256)">
<title>graphname</title>
<!-- x -->
<g id="node1" class="node">
<title>x</title>
<ellipse fill="#c6e7ec" stroke="black" cx="45" cy="-18" rx="27" ry="18"/>
<text text-anchor="middle" x="45" y="-14.3" font-family="Times,serif" font-size="14.00">x</text>
<text text-anchor="middle" x="9" y="-39.8" font-family="Times,serif" font-size="14.00">w₁</text>
</g>
<!-- y -->
<g id="node2" class="node">
<title>y</title>
<ellipse fill="#c6e7ec" stroke="black" cx="117" cy="-18" rx="27" ry="18"/>
<text text-anchor="middle" x="117" y="-14.3" font-family="Times,serif" font-size="14.00">y</text>
<text text-anchor="middle" x="81" y="-39.8" font-family="Times,serif" font-size="14.00">w₂</text>
</g>
<!-- sin -->
<g id="node3" class="node">
<title>sin</title>
<ellipse fill="white" stroke="black" cx="45" cy="-90" rx="27" ry="18"/>
<text text-anchor="middle" x="45" y="-86.3" font-family="Times,serif" font-size="14.00">sin</text>
<text text-anchor="middle" x="9" y="-111.8" font-family="Times,serif" font-size="14.00">w₃</text>
</g>
<!-- sin&#45;&gt;x -->
<g id="edge1" class="edge">
<title>sin&#45;&gt;x</title>
<path fill="none" stroke="black" d="M45,-71.7C45,-63.98 45,-54.71 45,-46.11"/>
<polygon fill="black" stroke="black" points="48.5,-46.1 45,-36.1 41.5,-46.1 48.5,-46.1"/>
</g>
<!-- plus -->
<g id="node4" class="node">
<title>plus</title>
<ellipse fill="white" stroke="black" cx="81" cy="-162" rx="27" ry="18"/>
<text text-anchor="middle" x="81" y="-158.3" font-family="Times,serif" font-size="14.00">+</text>
<text text-anchor="middle" x="45" y="-183.8" font-family="Times,serif" font-size="14.00">w₅</text>
</g>
<!-- plus&#45;&gt;sin -->
<g id="edge4" class="edge">
<title>plus&#45;&gt;sin</title>
<path fill="none" stroke="black" d="M72.65,-144.76C68.29,-136.28 62.85,-125.71 57.96,-116.2"/>
<polygon fill="black" stroke="black" points="60.99,-114.44 53.3,-107.15 54.77,-117.64 60.99,-114.44"/>
</g>
<!-- mul -->
<g id="node5" class="node">
<title>mul</title>
<ellipse fill="white" stroke="black" cx="117" cy="-90" rx="27" ry="18"/>
<text text-anchor="middle" x="117" y="-86.3" font-family="Times,serif" font-size="14.00">×</text>
<text text-anchor="middle" x="81" y="-111.8" font-family="Times,serif" font-size="14.00">w₄</text>
</g>
<!-- plus&#45;&gt;mul -->
<g id="edge5" class="edge">
<title>plus&#45;&gt;mul</title>
<path fill="none" stroke="black" d="M89.35,-144.76C93.71,-136.28 99.15,-125.71 104.04,-116.2"/>
<polygon fill="black" stroke="black" points="107.23,-117.64 108.7,-107.15 101.01,-114.44 107.23,-117.64"/>
</g>
<!-- mul&#45;&gt;x -->
<g id="edge2" class="edge">
<title>mul&#45;&gt;x</title>
<path fill="none" stroke="black" d="M102.43,-74.83C92.25,-64.94 78.48,-51.55 66.97,-40.36"/>
<polygon fill="black" stroke="black" points="69.41,-37.85 59.8,-33.38 64.53,-42.87 69.41,-37.85"/>
</g>
<!-- mul&#45;&gt;y -->
<g id="edge3" class="edge">
<title>mul&#45;&gt;y</title>
<path fill="none" stroke="black" d="M117,-71.7C117,-63.98 117,-54.71 117,-46.11"/>
<polygon fill="black" stroke="black" points="120.5,-46.1 117,-36.1 113.5,-46.1 120.5,-46.1"/>
</g>
<!-- loss -->
<g id="node6" class="node">
<title>loss</title>
<ellipse fill="#ecc6d3" stroke="black" cx="81" cy="-234" rx="27" ry="18"/>
<text text-anchor="middle" x="81" y="-230.3" font-family="Times,serif" font-size="14.00">ℒ</text>
</g>
<!-- loss&#45;&gt;plus -->
<g id="edge6" class="edge">
<title>loss&#45;&gt;plus</title>
<path fill="none" stroke="black" d="M81,-215.7C81,-207.98 81,-198.71 81,-190.11"/>
<polygon fill="black" stroke="black" points="84.5,-190.1 81,-180.1 77.5,-190.1 84.5,-190.1"/>
</g>
</g>
</svg>
