<svg xmlns="http://www.w3.org/2000/svg" xmlns:osb="http://www.openswatchbook.org/uri/2009/osb" xmlns:svg="http://www.w3.org/2000/svg" id="svg8" width="431.797" height="551.454" version="1.1" viewBox="0 0 114.246 145.905"><defs id="defs2"><linearGradient id="linearGradient2777" osb:paint="solid"><stop id="stop2775" offset="0" style="stop-color:#f8cbab;stop-opacity:1"/></linearGradient><clipPath id="clipPath2816" clipPathUnits="userSpaceOnUse"><rect id="rect2818" width="154.945" height="84.716" x="5.219" y="35.303" ry="33.047" style="fill:#a00;fill-opacity:1;stroke-width:.255736"/></clipPath><clipPath id="clipPath3667" clipPathUnits="userSpaceOnUse"><path style="fill:#a00;fill-opacity:1;stroke-width:.262371" id="path3669" d="m 114.20733,123.57021 a 33.785313,38.557522 0 0 1 -16.892654,33.3918 33.785313,38.557522 0 0 1 -33.785313,0 33.785313,38.557522 0 0 1 -16.892656,-33.3918 H 80.42202 Z"/></clipPath></defs><metadata id="metadata5"/><g id="layer1" transform="translate(-22.517094,-22.512642)"><g id="g2913" transform="translate(4.9458022,6.9624658)"><rect style="fill:#f8cbab;fill-opacity:1;stroke-width:.277848" id="rect2889" width="29.304" height="29.566" x="68.785" y="-52.083" ry="14.783" transform="rotate(90)"/><rect id="rect2909" width="15.989" height="16.132" x="75.443" y="-45.366" ry="8.066" transform="rotate(90)" style="fill:#e37e64;fill-opacity:1;stroke-width:.151601"/></g><g id="g2919" transform="translate(79.713764,6.9624658)"><rect id="rect2915" width="29.304" height="29.566" x="68.785" y="-52.083" ry="14.783" transform="rotate(90)" style="fill:#f8cbab;fill-opacity:1;stroke-width:.277848"/><rect style="fill:#e37e64;fill-opacity:1;stroke-width:.151601" id="rect2917" width="15.989" height="16.132" x="75.443" y="-45.366" ry="8.066" transform="rotate(90)"/></g><rect style="fill:#f8cbab;fill-opacity:1;stroke-width:.24206" id="rect10" width="77.606" height="132.118" x="40.451" y="36.3" ry="39.611"/><g id="g2871" transform="translate(-2.5187291,12.549358)"><rect id="rect2820-6" width="29.304" height="29.566" x="63.198" y="-83.22" ry="14.783" transform="rotate(90)" style="fill:#fff;fill-opacity:1;stroke-width:.277848"/><rect style="fill:#000;fill-opacity:1;stroke-width:.0456471" id="rect2865" width="4.693" height="4.982" x="75.504" y="-70.928" ry="2.491" transform="rotate(90)"/></g><g id="g2877" transform="translate(22.814296,12.549358)"><rect style="fill:#fff;fill-opacity:1;stroke-width:.277848" id="rect2873" width="29.304" height="29.566" x="63.198" y="-83.22" ry="14.783" transform="rotate(90)"/><rect id="rect2875" width="4.693" height="4.982" x="75.504" y="-70.928" ry="2.491" transform="rotate(90)" style="fill:#000;fill-opacity:1;stroke-width:.0456471"/></g><rect style="fill:#e37e64;fill-opacity:1;stroke-width:.177629" id="rect2879" width="22.501" height="15.738" x="96.837" y="-86.418" ry="7.869" transform="rotate(90)"/><rect style="fill:#c2904d;fill-opacity:1;stroke-width:.477913" id="rect2925" width="83.934" height="30.54" x="5.491" y="55.048" ry="15.27" transform="matrix(0.94154933,-0.33687514,0.32326304,0.94630915,0,0)"/><rect id="rect2927" width="29.304" height="29.566" x="37.508" y="-125.537" ry="14.783" transform="rotate(90)" style="fill:#c2904d;fill-opacity:1;stroke-width:.277848"/><rect id="rect3527" width="15.764" height="5.736" x="18.15" y="57.861" ry="2.868" transform="matrix(0.94154933,-0.33687514,0.32326304,0.94630915,0,0)" style="fill:#e7bd84;fill-opacity:1;stroke-width:.0897596"/><g id="g3676" transform="matrix(0.85376764,0,0,0.83076451,11.760302,24.175101)"><path style="fill:#a00;fill-opacity:1;stroke-width:.262371" id="path3574" d="m 114.20733,123.57021 a 33.785313,38.557522 0 0 1 -16.892654,33.3918 33.785313,38.557522 0 0 1 -33.785313,0 33.785313,38.557522 0 0 1 -16.892656,-33.3918 H 80.42202 Z"/><path id="rect3537" d="m 81.042925,142.08946 h 32.941555 c 5.01962,0 9.06069,4.04107 9.06069,9.06069 0,5.01962 -4.04107,9.06069 -9.06069,9.06069 H 81.042925 c -5.019622,0 -9.06069,-4.04107 -9.06069,-9.06069 0,-5.01962 4.041068,-9.06069 9.06069,-9.06069 z" clip-path="url(#clipPath3667)" style="fill:#ff8080;fill-opacity:1;stroke-width:.28714"/><path id="path3653" d="m 120.25391,381.94922 c -0.0714,0.90656 -0.11914,1.82058 -0.11914,2.74609 0,18.97179 15.27429,34.24414 34.24609,34.24414 h 124.50195 c 18.97181,0 34.2461,-15.27235 34.2461,-34.24414 0,-0.92551 -0.0478,-1.83953 -0.11914,-2.74609 h -94.15625 z" transform="matrix(0.26458333,0,0,0.26458333,22.517094,22.512642)" style="fill:#fff;fill-opacity:1;stroke-width:.991638"/></g></g></svg>