<?xml version="1.0" encoding="UTF-8" standalone="no"?>
<svg
   xmlns:osb="http://www.openswatchbook.org/uri/2009/osb"
   xmlns:dc="http://purl.org/dc/elements/1.1/"
   xmlns:cc="http://creativecommons.org/ns#"
   xmlns:rdf="http://www.w3.org/1999/02/22-rdf-syntax-ns#"
   xmlns:svg="http://www.w3.org/2000/svg"
   xmlns="http://www.w3.org/2000/svg"
   xmlns:sodipodi="http://sodipodi.sourceforge.net/DTD/sodipodi-0.dtd"
   xmlns:inkscape="http://www.inkscape.org/namespaces/inkscape"
   sodipodi:docname="John.svg"
   inkscape:version="1.0 (4035a4fb49, 2020-05-01)"
   id="svg8"
   version="1.1"
   viewBox="0 0 114.24631 145.90543"
   height="145.90543mm"
   width="114.24631mm">
  <defs
     id="defs2">
    <linearGradient
       osb:paint="solid"
       id="linearGradient2777">
      <stop
         id="stop2775"
         offset="0"
         style="stop-color:#f8cbab;stop-opacity:1;" />
    </linearGradient>
    <clipPath
       id="clipPath2816"
       clipPathUnits="userSpaceOnUse">
      <rect
         ry="33.047363"
         y="35.303364"
         x="5.2189159"
         height="84.716255"
         width="154.94458"
         id="rect2818"
         style="fill:#aa0000;fill-opacity:1;stroke-width:0.255736" />
    </clipPath>
    <clipPath
       id="clipPath3667"
       clipPathUnits="userSpaceOnUse">
      <path
         style="fill:#aa0000;fill-opacity:1;stroke-width:0.262371"
         id="path3669"
         sodipodi:type="arc"
         sodipodi:cx="80.42202"
         sodipodi:cy="123.57021"
         sodipodi:rx="33.785313"
         sodipodi:ry="38.557522"
         sodipodi:start="0"
         sodipodi:end="3.1415927"
         sodipodi:arc-type="slice"
         d="m 114.20733,123.57021 a 33.785313,38.557522 0 0 1 -16.892654,33.3918 33.785313,38.557522 0 0 1 -33.785313,0 33.785313,38.557522 0 0 1 -16.892656,-33.3918 H 80.42202 Z" />
    </clipPath>
  </defs>
  <sodipodi:namedview
     fit-margin-bottom="0"
     fit-margin-right="0"
     fit-margin-left="0"
     fit-margin-top="0"
     inkscape:window-maximized="1"
     inkscape:window-y="28"
     inkscape:window-x="0"
     inkscape:window-height="1024"
     inkscape:window-width="1920"
     showgrid="false"
     inkscape:document-rotation="0"
     inkscape:current-layer="layer1"
     inkscape:document-units="mm"
     inkscape:cy="259.51323"
     inkscape:cx="40.667574"
     inkscape:zoom="0.98994949"
     inkscape:pageshadow="2"
     inkscape:pageopacity="0.0"
     borderopacity="1.0"
     bordercolor="#666666"
     pagecolor="#ffffff"
     id="base" />
  <metadata
     id="metadata5">
    <rdf:RDF>
      <cc:Work
         rdf:about="">
        <dc:format>image/svg+xml</dc:format>
        <dc:type
           rdf:resource="http://purl.org/dc/dcmitype/StillImage" />
        <dc:title></dc:title>
      </cc:Work>
    </rdf:RDF>
  </metadata>
  <g
     transform="translate(-22.517094,-22.512642)"
     id="layer1"
     inkscape:groupmode="layer"
     inkscape:label="Layer 1">
    <g
       transform="translate(4.9458022,6.9624658)"
       id="g2913">
      <rect
         transform="rotate(90)"
         style="fill:#f8cbab;fill-opacity:1;stroke-width:0.277848"
         id="rect2889"
         width="29.304148"
         height="29.56636"
         x="68.785233"
         y="-52.083454"
         ry="14.78318" />
      <rect
         ry="8.0660868"
         y="-45.36636"
         x="75.442757"
         height="16.132174"
         width="15.989104"
         id="rect2909"
         style="fill:#e37e64;fill-opacity:1;stroke-width:0.151601"
         transform="rotate(90)" />
    </g>
    <g
       transform="translate(79.713764,6.9624658)"
       id="g2919">
      <rect
         ry="14.78318"
         y="-52.083454"
         x="68.785233"
         height="29.56636"
         width="29.304148"
         id="rect2915"
         style="fill:#f8cbab;fill-opacity:1;stroke-width:0.277848"
         transform="rotate(90)" />
      <rect
         transform="rotate(90)"
         style="fill:#e37e64;fill-opacity:1;stroke-width:0.151601"
         id="rect2917"
         width="15.989104"
         height="16.132174"
         x="75.442757"
         y="-45.36636"
         ry="8.0660868" />
    </g>
    <rect
       ry="39.611355"
       style="fill:#f8cbab;fill-opacity:1;stroke-width:0.24206"
       y="36.300457"
       x="40.450886"
       height="132.11761"
       width="77.605904"
       id="rect10" />
    <g
       transform="translate(-2.5187291,12.549358)"
       id="g2871">
      <rect
         ry="14.78318"
         y="-83.220314"
         x="63.198341"
         height="29.56636"
         width="29.304148"
         id="rect2820-6"
         style="fill:#ffffff;fill-opacity:1;stroke-width:0.277848"
         transform="rotate(90)" />
      <rect
         transform="rotate(90)"
         style="fill:#000000;fill-opacity:1;stroke-width:0.0456471"
         id="rect2865"
         width="4.6934228"
         height="4.9824972"
         x="75.5037"
         y="-70.928383"
         ry="2.4912486" />
    </g>
    <g
       id="g2877"
       transform="translate(22.814296,12.549358)">
      <rect
         transform="rotate(90)"
         style="fill:#ffffff;fill-opacity:1;stroke-width:0.277848"
         id="rect2873"
         width="29.304148"
         height="29.56636"
         x="63.198341"
         y="-83.220314"
         ry="14.78318" />
      <rect
         ry="2.4912486"
         y="-70.928383"
         x="75.5037"
         height="4.9824972"
         width="4.6934228"
         id="rect2875"
         style="fill:#000000;fill-opacity:1;stroke-width:0.0456471"
         transform="rotate(90)" />
    </g>
    <rect
       transform="rotate(90)"
       style="fill:#e37e64;fill-opacity:1;stroke-width:0.177629"
       id="rect2879"
       width="22.500715"
       height="15.737769"
       x="96.836525"
       y="-86.418457"
       ry="7.8688846" />
    <rect
       transform="matrix(0.94154933,-0.33687514,0.32326304,0.94630915,0,0)"
       style="fill:#c2904d;fill-opacity:1;stroke-width:0.477913"
       id="rect2925"
       width="83.93396"
       height="30.540001"
       x="5.4905686"
       y="55.048077"
       ry="15.27" />
    <rect
       ry="14.78318"
       y="-125.53658"
       x="37.507969"
       height="29.56636"
       width="29.304148"
       id="rect2927"
       style="fill:#c2904d;fill-opacity:1;stroke-width:0.277848"
       transform="rotate(90)" />
    <rect
       ry="2.8679476"
       y="57.861042"
       x="18.150185"
       height="5.7358952"
       width="15.764125"
       id="rect3527"
       style="fill:#e7bd84;fill-opacity:1;stroke-width:0.0897596"
       transform="matrix(0.94154933,-0.33687514,0.32326304,0.94630915,0,0)" />
    <g
       transform="matrix(0.85376764,0,0,0.83076451,11.760302,24.175101)"
       id="g3676">
      <path
         style="fill:#aa0000;fill-opacity:1;stroke-width:0.262371"
         id="path3574"
         sodipodi:type="arc"
         sodipodi:cx="80.42202"
         sodipodi:cy="123.57021"
         sodipodi:rx="33.785313"
         sodipodi:ry="38.557522"
         sodipodi:start="0"
         sodipodi:end="3.1415927"
         sodipodi:arc-type="slice"
         d="m 114.20733,123.57021 a 33.785313,38.557522 0 0 1 -16.892654,33.3918 33.785313,38.557522 0 0 1 -33.785313,0 33.785313,38.557522 0 0 1 -16.892656,-33.3918 H 80.42202 Z" />
      <path
         id="rect3537"
         style="fill:#ff8080;fill-opacity:1;stroke-width:0.28714"
         d="m 81.042925,142.08946 h 32.941555 c 5.01962,0 9.06069,4.04107 9.06069,9.06069 0,5.01962 -4.04107,9.06069 -9.06069,9.06069 H 81.042925 c -5.019622,0 -9.06069,-4.04107 -9.06069,-9.06069 0,-5.01962 4.041068,-9.06069 9.06069,-9.06069 z"
         clip-path="url(#clipPath3667)" />
      <path
         id="path3653"
         style="fill:#ffffff;fill-opacity:1;stroke-width:0.991638"
         d="m 120.25391,381.94922 c -0.0714,0.90656 -0.11914,1.82058 -0.11914,2.74609 0,18.97179 15.27429,34.24414 34.24609,34.24414 h 124.50195 c 18.97181,0 34.2461,-15.27235 34.2461,-34.24414 0,-0.92551 -0.0478,-1.83953 -0.11914,-2.74609 h -94.15625 z"
         transform="matrix(0.26458333,0,0,0.26458333,22.517094,22.512642)" />
    </g>
  </g>
</svg>
