<?xml version="1.0" encoding="UTF-8" standalone="no"?>
<!-- Created with Inkscape (http://www.inkscape.org/) -->

<svg
   width="113.4594mm"
   height="42.229515mm"
   viewBox="0 0 113.45939 42.229515"
   version="1.1"
   id="svg5"
   inkscape:export-filename="C:\Users\rjk217\ExPhot log - high res.png"
   inkscape:export-xdpi="429.82779"
   inkscape:export-ydpi="429.82779"
   sodipodi:docname="logo crop.svg"
   inkscape:version="1.1.2 (0a00cf5339, 2022-02-04, custom)"
   xmlns:inkscape="http://www.inkscape.org/namespaces/inkscape"
   xmlns:sodipodi="http://sodipodi.sourceforge.net/DTD/sodipodi-0.dtd"
   xmlns="http://www.w3.org/2000/svg"
   xmlns:svg="http://www.w3.org/2000/svg">
  <sodipodi:namedview
     id="namedview7"
     pagecolor="#f6f2e4"
     bordercolor="#666666"
     borderopacity="1.0"
     inkscape:pageshadow="2"
     inkscape:pageopacity="0"
     inkscape:pagecheckerboard="0"
     inkscape:document-units="mm"
     showgrid="false"
     inkscape:zoom="0.99999999"
     inkscape:cx="179.5"
     inkscape:cy="-24"
     inkscape:window-width="1920"
     inkscape:window-height="1017"
     inkscape:window-x="-8"
     inkscape:window-y="-8"
     inkscape:window-maximized="1"
     inkscape:current-layer="layer3"
     inkscape:snap-global="true"
     inkscape:snap-bbox="true"
     inkscape:bbox-paths="true"
     inkscape:bbox-nodes="true" />
  <defs
     id="defs2" />
  <g
     inkscape:label="Layer 1"
     inkscape:groupmode="layer"
     id="layer1"
     transform="translate(-51.419076,-209.08976)"
     style="display:none">
    <g
       id="g29292"
       transform="translate(0.13437334,-0.29358477)">
      <g
         id="g35624">
        <text
           xml:space="preserve"
           style="font-size:20.8077px;line-height:1.1;font-family:'Red Hat Mono';-inkscape-font-specification:'Red Hat Mono';text-align:center;word-spacing:0px;text-anchor:middle;fill:#38b6ff;fill-opacity:1;stroke:#000000;stroke-width:0.520195"
           x="104.69106"
           y="231.50514"
           id="text1101-3-1"
           transform="scale(1.0153056,0.98492513)"><tspan
             sodipodi:role="line"
             style="font-style:normal;font-variant:normal;font-weight:900;font-stretch:normal;font-family:'Baron Neue';-inkscape-font-specification:'Baron Neue Heavy';text-align:center;baseline-shift:baseline;text-anchor:middle;fill:#38b6ff;fill-opacity:1;stroke:#000000;stroke-width:0.520195"
             x="104.69106"
             y="231.50514"
             id="tspan1103-9-8">EXETER</tspan><tspan
             sodipodi:role="line"
             style="font-style:normal;font-variant:normal;font-weight:900;font-stretch:normal;font-family:'Baron Neue';-inkscape-font-specification:'Baron Neue Heavy';text-align:center;text-anchor:middle;fill:#38b6ff;fill-opacity:1;stroke:#000000;stroke-width:0.520195"
             x="104.69106"
             y="254.7986"
             id="tspan9501-6-2">PHOTONICS</tspan></text>
        <text
           xml:space="preserve"
           style="font-size:20.8077px;line-height:1.1;font-family:'Red Hat Mono';-inkscape-font-specification:'Red Hat Mono';text-align:center;word-spacing:0px;text-anchor:middle;fill:#ff66c4;fill-opacity:1;stroke:#000000;stroke-width:0.520195"
           x="107.4745"
           y="227.59386"
           id="text1101-3"
           transform="scale(1.0153056,0.98492513)"><tspan
             sodipodi:role="line"
             style="font-style:normal;font-variant:normal;font-weight:900;font-stretch:normal;font-family:'Baron Neue';-inkscape-font-specification:'Baron Neue Heavy';text-align:center;baseline-shift:baseline;text-anchor:middle;fill:#ff66c4;fill-opacity:1;stroke:#000000;stroke-width:0.520195"
             x="107.4745"
             y="227.59386"
             id="tspan1103-9">EXETER</tspan><tspan
             sodipodi:role="line"
             style="font-style:normal;font-variant:normal;font-weight:normal;font-stretch:normal;font-family:'Baron Neue';-inkscape-font-specification:'Baron Neue';text-align:center;text-anchor:middle;fill:#ff66c4;fill-opacity:1;stroke:#000000;stroke-width:0.520195"
             x="107.4745"
             y="250.88731"
             id="tspan9501-6">PHOTONICS</tspan></text>
        <text
           xml:space="preserve"
           style="font-size:20.8077px;line-height:1.1;font-family:'Red Hat Mono';-inkscape-font-specification:'Red Hat Mono';text-align:center;word-spacing:0px;text-anchor:middle;fill:#ffffff;stroke:#000000;stroke-width:0.520195"
           x="106.15041"
           y="229.5495"
           id="text1101"
           transform="scale(1.0153056,0.98492513)"><tspan
             sodipodi:role="line"
             style="font-style:normal;font-variant:normal;font-weight:900;font-stretch:normal;font-family:'Baron Neue';-inkscape-font-specification:'Baron Neue Heavy';text-align:center;baseline-shift:baseline;text-anchor:middle;fill:#ffffff;stroke:#000000;stroke-width:0.520195"
             x="106.15041"
             y="229.5495"
             id="tspan1103">ExETER</tspan><tspan
             sodipodi:role="line"
             style="font-style:normal;font-variant:normal;font-weight:900;font-stretch:normal;font-family:'Baron Neue';-inkscape-font-specification:'Baron Neue Heavy';text-align:center;text-anchor:middle;fill:#ffffff;stroke:#000000;stroke-width:0.520195"
             x="106.15041"
             y="252.84296"
             id="tspan9501">PHOTONICS</tspan></text>
        <g
           aria-label="ExETER PHOTONICS"
           transform="matrix(1.0153056,0,0,0.98492513,101.46757,-0.00391043)"
           id="text1101-6"
           style="font-size:20.8077px;line-height:1.1;font-family:'Red Hat Mono';-inkscape-font-specification:'Red Hat Mono';text-align:center;word-spacing:0px;text-anchor:middle;fill:#ffffff;stroke:#000000;stroke-width:0.520195">
          <path
             d="m -25.853582,217.95961 h 6.304733 c 0.249692,0 0.436961,-0.18727 0.436961,-0.37454 v -2.22642 c 0,-0.18727 -0.187269,-0.37454 -0.436961,-0.37454 h -9.051349 c -0.2705,0 -0.436962,0.18727 -0.436962,0.37454 v 13.83712 c 0,0.16646 0.166462,0.35373 0.436962,0.35373 h 9.21781 c 0.2705,0 0.45777,-0.18727 0.45777,-0.35373 v -2.30966 c 0,-0.18727 -0.18727,-0.37453 -0.45777,-0.37453 h -6.471194 v -2.78824 h 5.326771 c 0.249692,0 0.416154,-0.18727 0.416154,-0.35373 v -2.24723 c 0,-0.18727 -0.166462,-0.37454 -0.416154,-0.37454 h -5.326771 z"
             style="font-weight:900;font-family:'Baron Neue';-inkscape-font-specification:'Baron Neue Heavy';text-align:end;text-anchor:end"
             id="path90" />
          <path
             d="m -13.202514,222.41246 -4.775366,6.68967 c -0.09363,0.13525 0.07282,0.44737 0.468174,0.44737 h 2.746616 c 0.08323,0 0.291308,-0.0624 0.374539,-0.14565 1.019577,-1.43574 2.101578,-3.03793 3.121155,-4.47366 1.061192,1.51896 2.0183466,2.95469 3.0795393,4.47366 0.062423,0.10403 0.2705,0.14565 0.3537308,0.14565 h 2.7882317 c 0.3329232,0 0.5410002,-0.31212 0.3537309,-0.58262 -0.8739233,-1.20684 -1.8310775,-2.53854 -2.7050009,-3.76619 -0.686654,-0.93635 -1.310885,-1.87269 -1.9975391,-2.78823 l 4.70254,-6.67927 c 0.1872693,-0.2705 -0.020808,-0.58262 -0.3537309,-0.58262 h -2.7882317 c -0.062423,0 -0.2913077,0.0624 -0.3537308,0.12485 l -3.0795393,4.49446 c -1.061193,-1.51896 -2.08077,-2.9755 -3.121155,-4.49446 -0.08323,-0.0832 -0.2705,-0.12485 -0.374539,-0.12485 h -2.746616 c -0.395346,0 -0.561808,0.31212 1.113211,2.71541 1.675019,2.40329 2.424096,3.46448 3.193981,4.54648 z"
             style="font-weight:900;font-family:'Baron Neue';-inkscape-font-specification:'Baron Neue Heavy';text-align:end;text-anchor:end"
             id="path92"
             sodipodi:nodetypes="ccsscccssccccsscccsscc" />
          <path
             d="M 0.40571627,217.95961 H 6.7104491 c 0.2496924,0 0.4369617,-0.18727 0.4369617,-0.37454 v -2.22642 c 0,-0.18727 -0.1872693,-0.37454 -0.4369617,-0.37454 H -2.3409 c -0.2705001,0 -0.4369617,0.18727 -0.4369617,0.37454 v 13.83712 c 0,0.16646 0.1664616,0.35373 0.4369617,0.35373 h 9.2178107 c 0.2705001,0 0.4577694,-0.18727 0.4577694,-0.35373 v -2.30966 c 0,-0.18727 -0.1872693,-0.37453 -0.4577694,-0.37453 H 0.40571627 v -2.78824 H 5.7324873 c 0.2496924,0 0.4161539,-0.18727 0.4161539,-0.35373 v -2.24723 c 0,-0.18727 -0.1664615,-0.37454 -0.4161539,-0.37454 H 0.40571627 Z"
             style="font-weight:900;font-family:'Baron Neue';-inkscape-font-specification:'Baron Neue Heavy';text-align:end;text-anchor:end"
             id="path94" />
          <path
             d="m 17.239133,217.46023 v -2.10158 c 0,-0.18727 -0.18727,-0.37454 -0.45777,-0.37454 H 8.6663605 c -0.2496924,0 -0.4369617,0.18727 -0.4369617,0.37454 v 2.10158 c 0,0.16646 0.1872693,0.35373 0.4369617,0.35373 h 2.4761165 v 11.38181 c 0,0.16646 0.187269,0.35373 0.436961,0.35373 h 2.288847 c 0.2705,0 0.45777,-0.18727 0.45777,-0.35373 v -11.38181 h 2.455308 c 0.2705,0 0.45777,-0.18727 0.45777,-0.35373 z"
             style="font-weight:900;font-family:'Baron Neue';-inkscape-font-specification:'Baron Neue Heavy';text-align:end;text-anchor:end"
             id="path96" />
          <path
             d="m 21.962477,217.95961 h 6.304733 c 0.249692,0 0.436962,-0.18727 0.436962,-0.37454 v -2.22642 c 0,-0.18727 -0.18727,-0.37454 -0.436962,-0.37454 h -9.051349 c -0.2705,0 -0.436962,0.18727 -0.436962,0.37454 v 13.83712 c 0,0.16646 0.166462,0.35373 0.436962,0.35373 h 9.217811 c 0.2705,0 0.457769,-0.18727 0.457769,-0.35373 v -2.30966 c 0,-0.18727 -0.187269,-0.37453 -0.457769,-0.37453 h -6.471195 v -2.78824 h 5.326771 c 0.249692,0 0.416154,-0.18727 0.416154,-0.35373 v -2.24723 c 0,-0.18727 -0.166462,-0.37454 -0.416154,-0.37454 h -5.326771 z"
             style="font-weight:900;font-family:'Baron Neue';-inkscape-font-specification:'Baron Neue Heavy';text-align:end;text-anchor:end"
             id="path98" />
          <path
             d="m 38.712661,229.5495 h 2.725808 c 0.332923,0 0.520193,-0.29131 0.426558,-0.41616 l -3.589328,-5.74293 c 1.373308,-0.47858 2.871462,-1.56058 2.871462,-4.01589 0,-4.39042 -5.05627,-4.39042 -5.05627,-4.39042 h -4.61931 c -0.249692,0 -0.436961,0.18727 -0.436961,0.37454 v 2.35127 l 1.061192,1.70623 c 0.291308,0.45777 0.603424,0.87392 0.873924,1.33169 h -1.498155 c -0.249692,0 -0.436961,0.18727 -0.436961,0.37454 v 8.07339 c 0,0.16646 0.187269,0.35373 0.436961,0.35373 h 2.309655 c 0.2705,0 0.436962,-0.18727 0.436962,-0.35373 v -5.41 h 0.624231 l 3.495693,5.57646 -0.02081,-0.0208 c 0.04162,0.10404 0.2705,0.20808 0.395347,0.20808 z m -2.226424,-8.82246 -1.706231,-2.70501 h 1.310885 c 0.395346,0 1.851885,0 1.851885,1.3525 0,1.01958 -0.790693,1.31089 -1.456539,1.35251 z"
             style="font-weight:900;font-family:'Baron Neue';-inkscape-font-specification:'Baron Neue Heavy';text-align:end;text-anchor:end"
             id="path100"
             sodipodi:nodetypes="csccscsscccssssssccccscccssc" />
        </g>
        <path
           d="m 158.2086,249.23642 c 2.49289,0 4.83789,-1.57805 4.83789,-4.38572 0,-1.76249 -0.88729,-3.23806 -2.55626,-3.97584 -1.07743,-0.49186 -2.176,-0.49186 -2.28163,-0.49186 -0.82392,0 -1.60559,-0.47137 -1.60559,-1.37311 0,-1.02469 0.73941,-1.53704 1.60559,-1.53704 0.82392,0 1.52108,0.43037 1.56334,1.29112 0,0.14346 0.23238,0.34839 0.46478,0.34839 h 2.30275 c 0.27464,0 0.46477,-0.20493 0.46477,-0.34839 -0.0422,-2.54126 -2.13374,-4.28326 -4.79564,-4.28326 -2.47176,0 -4.8379,1.72151 -4.8379,4.52918 0,1.7625 0.92955,3.07411 2.53515,3.8119 1.11969,0.49185 2.17599,0.49185 2.30275,0.49185 0.73942,0.0615 1.60559,0.61482 1.60559,1.53706 0,0.84025 -0.73942,1.39359 -1.60559,1.39359 -0.82392,0 -1.56334,-0.45087 -1.60559,-1.33211 0,-0.18445 -0.21127,-0.3689 -0.44365,-0.3689 h -2.345 c -0.25352,0 -0.44366,0.18445 -0.44366,0.3689 0.0422,2.74619 2.15487,4.26275 4.8379,4.32424 z m -29.42879,-0.55334 v -13.62853 c 0,-0.18445 -0.16901,-0.36889 -0.44365,-0.36889 h -2.32388 c -0.27464,0 -0.44365,0.18444 -0.44365,0.36889 v 8.32057 c -2.13375,-2.97163 -4.07736,-5.59487 -6.18998,-8.54601 -0.0845,-0.10246 -0.27464,-0.14345 -0.35914,-0.14345 h -2.38726 c -0.25351,0 -0.44365,0.18444 -0.44365,0.36889 v 13.62853 c 0,0.16395 0.19014,0.3484 0.44365,0.3484 h 2.36614 c 0.25352,0 0.44365,-0.18445 0.44365,-0.3484 v -8.36156 l 6.16885,8.5665 c 0.0845,0.10246 0.27464,0.14346 0.35914,0.14346 h 2.36613 c 0.27464,0 0.44365,-0.18445 0.44365,-0.3484 z m 17.49249,-2.43879 c -2.32388,0 -4.22523,-1.68051 -4.22523,-4.38573 0,-2.52076 1.58446,-4.38571 4.22523,-4.38571 1.16194,0 2.21825,0.47135 3.02105,1.25013 0.14787,0.12296 0.4014,0.12296 0.57041,0 l 1.64784,-1.57804 c 0.12674,-0.12296 0.12674,-0.40988 0.0422,-0.55333 -1.33094,-1.25014 -3.25342,-2.1109 -5.28154,-2.1109 -4.37312,0 -7.49979,3.05362 -7.49979,7.37785 0,4.50869 3.35906,7.37786 7.49979,7.37786 2.02812,0 3.9506,-0.86075 5.28154,-2.0904 0.10563,-0.10247 0.0634,-0.38938 0,-0.53284 l -1.60558,-1.55754 c -0.21127,-0.16396 -0.50704,-0.18445 -0.65492,-0.0615 -0.80279,0.77878 -1.8591,1.25014 -3.02104,1.25014 z m -45.14666,-9.11984 v -2.0699 c 0,-0.18445 -0.19013,-0.36889 -0.46477,-0.36889 h -8.239211 c -0.25351,0 -0.44365,0.18444 -0.44365,0.36889 v 2.0699 c 0,0.16395 0.19014,0.3484 0.44365,0.3484 h 2.51401 v 11.21023 c 0,0.16395 0.19014,0.3484 0.44365,0.3484 h 2.32388 c 0.27464,0 0.46478,-0.18445 0.46478,-0.3484 v -11.21023 h 2.492891 c 0.27464,0 0.46477,-0.18445 0.46477,-0.3484 z m -43.055171,-2.43879 h -4.69001 c -0.27464,0 -0.44365,0.18444 -0.44365,0.36889 v 2.31583 c 0.25351,0.43037 0.59153,0.90174 0.84504,1.33211 0.38028,0.55334 0.7183,1.10667 1.09857,1.66001 h -1.49996 c -0.27464,0 -0.44365,0.18445 -0.44365,0.36889 v 7.95169 c 0,0.16395 0.16901,0.3484 0.44365,0.3484 h 2.345 c 0.25352,0 0.44365,-0.18445 0.44365,-0.3484 v -5.32845 h 1.90136 c 0,0 5.11253,0 5.11253,-4.34474 0,-4.32423 -5.11253,-4.32423 -5.11253,-4.32423 z m -1.41545,2.99212 h 1.41545 c 0.38027,0 1.88023,0 1.88023,1.33211 0,0.88125 -0.92955,1.25014 -1.56334,1.33212 z m 19.62621,-2.99212 h -2.345 c -0.25352,0 -0.44365,0.18444 -0.44365,0.36889 v 5.28746 h -4.94353 v -5.28746 c 0,-0.18445 -0.19013,-0.36889 -0.46477,-0.36889 h -2.34501 c -0.25351,0 -0.44365,0.18444 -0.44365,0.36889 v 13.62853 c 0,0.16395 0.19014,0.3484 0.44365,0.3484 h 2.34501 c 0.27464,0 0.46477,-0.18445 0.46477,-0.3484 v -5.32845 h 4.94353 v 5.32845 c 0,0.16395 0.19013,0.3484 0.44365,0.3484 h 2.345 c 0.27464,0 0.46478,-0.18445 0.46478,-0.3484 v -13.62853 c 0,-0.18445 -0.19014,-0.36889 -0.46478,-0.36889 z m 8.68288,10.57491 c 3.10555,0 5.66181,-2.3773 5.66181,-5.34894 0,-2.95114 -2.55626,-5.38992 -5.66181,-5.38992 -3.12667,0 -5.68294,2.43878 -5.68294,5.38992 0,2.97164 2.55627,5.34894 5.68294,5.34894 z m 0,-7.76724 c 1.35207,0 2.42951,1.0657 2.42951,2.4183 0,1.37311 -1.07744,2.37732 -2.42951,2.37732 -1.35208,0 -2.45064,-1.00421 -2.45064,-2.37732 0,-1.3526 1.09856,-2.4183 2.45064,-2.4183 z m 5.02803,11.18975 v -2.25435 c 0,-0.18444 -0.19014,-0.36889 -0.46478,-0.36889 h -9.25326 c -0.27464,0 -0.44365,0.18445 -0.44365,0.36889 v 2.25435 c 0,0.16395 0.16901,0.3484 0.44365,0.3484 h 9.25326 c 0.27464,0 0.46478,-0.18445 0.46478,-0.3484 z m 45.738201,-11.21023 h 1.11968 c 0.27464,0 0.44365,-0.18445 0.44365,-0.3484 v -2.0699 c 0,-0.18445 -0.16901,-0.36889 -0.44365,-0.36889 h -5.4928 c -0.25351,0 -0.44365,0.18444 -0.44365,0.36889 v 2.0699 c 0,0.16395 0.19014,0.3484 0.44365,0.3484 h 1.14081 v 8.77144 h -1.22531 c -0.25353,0 -0.44365,0.18444 -0.44365,0.34839 v 2.0904 c 0,0.16395 0.19012,0.3484 0.44365,0.3484 h 5.66181 c 0.25351,0 0.44365,-0.18445 0.44365,-0.3484 v -2.0904 c 0,-0.16395 -0.19014,-0.34839 -0.44365,-0.34839 h -1.20419 z m -27.8232,7.78772 c 3.10555,0 5.66181,-2.3773 5.66181,-5.34894 0,-2.95114 -2.55626,-5.38992 -5.66181,-5.38992 -3.12667,0 -5.68294,2.43878 -5.68294,5.38992 0,2.97164 2.55627,5.34894 5.68294,5.34894 z m 0,-7.76724 c 1.35207,0 2.42952,1.0657 2.42952,2.4183 0,1.37311 -1.07745,2.37732 -2.42952,2.37732 -1.35207,0 -2.45063,-1.00421 -2.45063,-2.37732 0,-1.3526 1.09856,-2.4183 2.45063,-2.4183 z m 5.02803,11.18975 v -2.25435 c 0,-0.18444 -0.19014,-0.36889 -0.46478,-0.36889 h -9.25326 c -0.27464,0 -0.44365,0.18445 -0.44365,0.36889 v 2.25435 c 0,0.16395 0.16901,0.3484 0.44365,0.3484 h 9.25326 c 0.27464,0 0.46478,-0.18445 0.46478,-0.3484 z"
           style="font-weight:900;font-family:'Baron Neue';-inkscape-font-specification:'Baron Neue Heavy';text-align:end;text-anchor:end;fill:#ffffff;stroke:#000000;stroke-width:0.52;stroke-miterlimit:4;stroke-dasharray:none"
           id="path3851" />
      </g>
    </g>
  </g>
  <g
     inkscape:groupmode="layer"
     id="layer3"
     inkscape:label="Layer 2"
     transform="translate(-9.43889,-45.121245)">
    <g
       id="g5334"
       transform="translate(-35.005388,-206.52389)">
      <g
         aria-label="ExETER PHOTONICS"
         transform="matrix(1.0153056,0,0,0.98492513,93.280516,44.374319)"
         id="text1101-9"
         style="font-size:20.8077px;line-height:1.1;font-family:'Red Hat Mono';-inkscape-font-specification:'Red Hat Mono';text-align:center;word-spacing:0px;text-anchor:middle;fill:#38b6ff;fill-opacity:1;stroke:#000000;stroke-width:0.52;stroke-miterlimit:4;stroke-dasharray:none">
        <path
           d="m -25.853582,217.95961 h 6.304733 c 0.249692,0 0.436961,-0.18727 0.436961,-0.37454 v -2.22642 c 0,-0.18727 -0.187269,-0.37454 -0.436961,-0.37454 h -9.051349 c -0.2705,0 -0.436962,0.18727 -0.436962,0.37454 v 13.83712 c 0,0.16646 0.166462,0.35373 0.436962,0.35373 h 9.21781 c 0.2705,0 0.45777,-0.18727 0.45777,-0.35373 v -2.30966 c 0,-0.18727 -0.18727,-0.37453 -0.45777,-0.37453 h -6.471194 v -2.78824 h 5.326771 c 0.249692,0 0.416154,-0.18727 0.416154,-0.35373 v -2.24723 c 0,-0.18727 -0.166462,-0.37454 -0.416154,-0.37454 h -5.326771 z"
           style="font-weight:900;font-family:'Baron Neue';-inkscape-font-specification:'Baron Neue Heavy';text-align:end;text-anchor:end;fill:#38b6ff;fill-opacity:1;stroke-width:0.52;stroke-miterlimit:4;stroke-dasharray:none"
           id="path90-8" />
        <path
           d="m -13.202514,222.41246 -4.775366,6.68967 c -0.09363,0.13525 0.07282,0.44737 0.468174,0.44737 h 2.746616 c 0.08323,0 0.291308,-0.0624 0.374539,-0.14565 1.019577,-1.43574 2.101578,-3.03793 3.121155,-4.47366 1.061192,1.51896 2.0183466,2.95469 3.0795393,4.47366 0.062423,0.10403 0.2705,0.14565 0.3537308,0.14565 h 2.7882317 c 0.3329232,0 0.5410002,-0.31212 0.3537309,-0.58262 -0.8739233,-1.20684 -1.8310775,-2.53854 -2.7050009,-3.76619 -0.686654,-0.93635 -1.310885,-1.87269 -1.9975391,-2.78823 l 4.70254,-6.67927 c 0.1872693,-0.2705 -0.020808,-0.58262 -0.3537309,-0.58262 h -2.7882317 c -0.062423,0 -0.2913077,0.0624 -0.3537308,0.12485 l -3.0795393,4.49446 c -1.061193,-1.51896 -2.08077,-2.9755 -3.121155,-4.49446 -0.08323,-0.0832 -0.2705,-0.12485 -0.374539,-0.12485 h -2.746616 c -0.395346,0 -0.561808,0.31212 1.113211,2.71541 1.675019,2.40329 2.424096,3.46448 3.193981,4.54648 z"
           style="font-weight:900;font-family:'Baron Neue';-inkscape-font-specification:'Baron Neue Heavy';text-align:end;text-anchor:end;fill:#38b6ff;fill-opacity:1;stroke-width:0.52;stroke-miterlimit:4;stroke-dasharray:none"
           id="path92-0"
           sodipodi:nodetypes="ccsscccssccccsscccsscc" />
        <path
           d="M 0.40571627,217.95961 H 6.7104491 c 0.2496924,0 0.4369617,-0.18727 0.4369617,-0.37454 v -2.22642 c 0,-0.18727 -0.1872693,-0.37454 -0.4369617,-0.37454 H -2.3409 c -0.2705001,0 -0.4369617,0.18727 -0.4369617,0.37454 v 13.83712 c 0,0.16646 0.1664616,0.35373 0.4369617,0.35373 h 9.2178107 c 0.2705001,0 0.4577694,-0.18727 0.4577694,-0.35373 v -2.30966 c 0,-0.18727 -0.1872693,-0.37453 -0.4577694,-0.37453 H 0.40571627 v -2.78824 H 5.7324873 c 0.2496924,0 0.4161539,-0.18727 0.4161539,-0.35373 v -2.24723 c 0,-0.18727 -0.1664615,-0.37454 -0.4161539,-0.37454 H 0.40571627 Z"
           style="font-weight:900;font-family:'Baron Neue';-inkscape-font-specification:'Baron Neue Heavy';text-align:end;text-anchor:end;fill:#38b6ff;fill-opacity:1;stroke-width:0.52;stroke-miterlimit:4;stroke-dasharray:none"
           id="path94-8" />
        <path
           d="m 17.239133,217.46023 v -2.10158 c 0,-0.18727 -0.18727,-0.37454 -0.45777,-0.37454 H 8.6663605 c -0.2496924,0 -0.4369617,0.18727 -0.4369617,0.37454 v 2.10158 c 0,0.16646 0.1872693,0.35373 0.4369617,0.35373 h 2.4761165 v 11.38181 c 0,0.16646 0.187269,0.35373 0.436961,0.35373 h 2.288847 c 0.2705,0 0.45777,-0.18727 0.45777,-0.35373 v -11.38181 h 2.455308 c 0.2705,0 0.45777,-0.18727 0.45777,-0.35373 z"
           style="font-weight:900;font-family:'Baron Neue';-inkscape-font-specification:'Baron Neue Heavy';text-align:end;text-anchor:end;fill:#38b6ff;fill-opacity:1;stroke-width:0.52;stroke-miterlimit:4;stroke-dasharray:none"
           id="path96-9" />
        <path
           d="m 21.962477,217.95961 h 6.304733 c 0.249692,0 0.436962,-0.18727 0.436962,-0.37454 v -2.22642 c 0,-0.18727 -0.18727,-0.37454 -0.436962,-0.37454 h -9.051349 c -0.2705,0 -0.436962,0.18727 -0.436962,0.37454 v 13.83712 c 0,0.16646 0.166462,0.35373 0.436962,0.35373 h 9.217811 c 0.2705,0 0.457769,-0.18727 0.457769,-0.35373 v -2.30966 c 0,-0.18727 -0.187269,-0.37453 -0.457769,-0.37453 h -6.471195 v -2.78824 h 5.326771 c 0.249692,0 0.416154,-0.18727 0.416154,-0.35373 v -2.24723 c 0,-0.18727 -0.166462,-0.37454 -0.416154,-0.37454 h -5.326771 z"
           style="font-weight:900;font-family:'Baron Neue';-inkscape-font-specification:'Baron Neue Heavy';text-align:end;text-anchor:end;fill:#38b6ff;fill-opacity:1;stroke-width:0.52;stroke-miterlimit:4;stroke-dasharray:none"
           id="path98-7" />
        <path
           d="m 38.712661,229.5495 h 2.725808 c 0.332923,0 0.520193,-0.29131 0.426558,-0.41616 l -3.589328,-5.74293 c 1.373308,-0.47858 2.871462,-1.56058 2.871462,-4.01589 0,-4.39042 -5.05627,-4.39042 -5.05627,-4.39042 h -4.61931 c -0.249692,0 -0.436961,0.18727 -0.436961,0.37454 v 2.35127 l 1.061192,1.70623 c 0.291308,0.45777 0.603424,0.87392 0.873924,1.33169 h -1.498155 c -0.249692,0 -0.436961,0.18727 -0.436961,0.37454 v 8.07339 c 0,0.16646 0.187269,0.35373 0.436961,0.35373 h 2.309655 c 0.2705,0 0.436962,-0.18727 0.436962,-0.35373 v -5.41 h 0.624231 l 3.495693,5.57646 -0.02081,-0.0208 c 0.04162,0.10404 0.2705,0.20808 0.395347,0.20808 z m -2.226424,-8.82246 -1.706231,-2.70501 h 1.310885 c 0.395346,0 1.851885,0 1.851885,1.3525 0,1.01958 -0.790693,1.31089 -1.456539,1.35251 z"
           style="font-weight:900;font-family:'Baron Neue';-inkscape-font-specification:'Baron Neue Heavy';text-align:end;text-anchor:end;fill:#38b6ff;fill-opacity:1;stroke-width:0.52;stroke-miterlimit:4;stroke-dasharray:none"
           id="path100-7"
           sodipodi:nodetypes="csccscsscccssssssccccscccssc" />
      </g>
      <g
         aria-label="ExETER PHOTONICS"
         transform="matrix(1.0153056,0,0,0.98492513,96.019282,40.157973)"
         id="text1101-9-3"
         style="font-size:20.8077px;line-height:1.1;font-family:'Red Hat Mono';-inkscape-font-specification:'Red Hat Mono';text-align:center;word-spacing:0px;text-anchor:middle;fill:#ff66c4;fill-opacity:1;stroke:#000000;stroke-width:0.52;stroke-miterlimit:4;stroke-dasharray:none">
        <path
           d="m -25.853582,217.95961 h 6.304733 c 0.249692,0 0.436961,-0.18727 0.436961,-0.37454 v -2.22642 c 0,-0.18727 -0.187269,-0.37454 -0.436961,-0.37454 h -9.051349 c -0.2705,0 -0.436962,0.18727 -0.436962,0.37454 v 13.83712 c 0,0.16646 0.166462,0.35373 0.436962,0.35373 h 9.21781 c 0.2705,0 0.45777,-0.18727 0.45777,-0.35373 v -2.30966 c 0,-0.18727 -0.18727,-0.37453 -0.45777,-0.37453 h -6.471194 v -2.78824 h 5.326771 c 0.249692,0 0.416154,-0.18727 0.416154,-0.35373 v -2.24723 c 0,-0.18727 -0.166462,-0.37454 -0.416154,-0.37454 h -5.326771 z"
           style="font-weight:900;font-family:'Baron Neue';-inkscape-font-specification:'Baron Neue Heavy';text-align:end;text-anchor:end;fill:#ff66c4;fill-opacity:1;stroke-width:0.52;stroke-miterlimit:4;stroke-dasharray:none"
           id="path90-8-1" />
        <path
           d="m -13.202514,222.41246 -4.775366,6.68967 c -0.09363,0.13525 0.07282,0.44737 0.468174,0.44737 h 2.746616 c 0.08323,0 0.291308,-0.0624 0.374539,-0.14565 1.019577,-1.43574 2.101578,-3.03793 3.121155,-4.47366 1.061192,1.51896 2.0183466,2.95469 3.0795393,4.47366 0.062423,0.10403 0.2705,0.14565 0.3537308,0.14565 h 2.7882317 c 0.3329232,0 0.5410002,-0.31212 0.3537309,-0.58262 -0.8739233,-1.20684 -1.8310775,-2.53854 -2.7050009,-3.76619 -0.686654,-0.93635 -1.310885,-1.87269 -1.9975391,-2.78823 l 4.70254,-6.67927 c 0.1872693,-0.2705 -0.020808,-0.58262 -0.3537309,-0.58262 h -2.7882317 c -0.062423,0 -0.2913077,0.0624 -0.3537308,0.12485 l -3.0795393,4.49446 c -1.061193,-1.51896 -2.08077,-2.9755 -3.121155,-4.49446 -0.08323,-0.0832 -0.2705,-0.12485 -0.374539,-0.12485 h -2.746616 c -0.395346,0 -0.561808,0.31212 1.113211,2.71541 1.675019,2.40329 2.424096,3.46448 3.193981,4.54648 z"
           style="font-weight:900;font-family:'Baron Neue';-inkscape-font-specification:'Baron Neue Heavy';text-align:end;text-anchor:end;fill:#ff66c4;fill-opacity:1;stroke-width:0.52;stroke-miterlimit:4;stroke-dasharray:none"
           id="path92-0-2"
           sodipodi:nodetypes="ccsscccssccccsscccsscc" />
        <path
           d="M 0.40571627,217.95961 H 6.7104491 c 0.2496924,0 0.4369617,-0.18727 0.4369617,-0.37454 v -2.22642 c 0,-0.18727 -0.1872693,-0.37454 -0.4369617,-0.37454 H -2.3409 c -0.2705001,0 -0.4369617,0.18727 -0.4369617,0.37454 v 13.83712 c 0,0.16646 0.1664616,0.35373 0.4369617,0.35373 h 9.2178107 c 0.2705001,0 0.4577694,-0.18727 0.4577694,-0.35373 v -2.30966 c 0,-0.18727 -0.1872693,-0.37453 -0.4577694,-0.37453 H 0.40571627 v -2.78824 H 5.7324873 c 0.2496924,0 0.4161539,-0.18727 0.4161539,-0.35373 v -2.24723 c 0,-0.18727 -0.1664615,-0.37454 -0.4161539,-0.37454 H 0.40571627 Z"
           style="font-weight:900;font-family:'Baron Neue';-inkscape-font-specification:'Baron Neue Heavy';text-align:end;text-anchor:end;fill:#ff66c4;fill-opacity:1;stroke-width:0.52;stroke-miterlimit:4;stroke-dasharray:none"
           id="path94-8-8" />
        <path
           d="m 17.239133,217.46023 v -2.10158 c 0,-0.18727 -0.18727,-0.37454 -0.45777,-0.37454 H 8.6663605 c -0.2496924,0 -0.4369617,0.18727 -0.4369617,0.37454 v 2.10158 c 0,0.16646 0.1872693,0.35373 0.4369617,0.35373 h 2.4761165 v 11.38181 c 0,0.16646 0.187269,0.35373 0.436961,0.35373 h 2.288847 c 0.2705,0 0.45777,-0.18727 0.45777,-0.35373 v -11.38181 h 2.455308 c 0.2705,0 0.45777,-0.18727 0.45777,-0.35373 z"
           style="font-weight:900;font-family:'Baron Neue';-inkscape-font-specification:'Baron Neue Heavy';text-align:end;text-anchor:end;fill:#ff66c4;fill-opacity:1;stroke-width:0.52;stroke-miterlimit:4;stroke-dasharray:none"
           id="path96-9-8" />
        <path
           d="m 21.962477,217.95961 h 6.304733 c 0.249692,0 0.436962,-0.18727 0.436962,-0.37454 v -2.22642 c 0,-0.18727 -0.18727,-0.37454 -0.436962,-0.37454 h -9.051349 c -0.2705,0 -0.436962,0.18727 -0.436962,0.37454 v 13.83712 c 0,0.16646 0.166462,0.35373 0.436962,0.35373 h 9.217811 c 0.2705,0 0.457769,-0.18727 0.457769,-0.35373 v -2.30966 c 0,-0.18727 -0.187269,-0.37453 -0.457769,-0.37453 h -6.471195 v -2.78824 h 5.326771 c 0.249692,0 0.416154,-0.18727 0.416154,-0.35373 v -2.24723 c 0,-0.18727 -0.166462,-0.37454 -0.416154,-0.37454 h -5.326771 z"
           style="font-weight:900;font-family:'Baron Neue';-inkscape-font-specification:'Baron Neue Heavy';text-align:end;text-anchor:end;fill:#ff66c4;fill-opacity:1;stroke-width:0.52;stroke-miterlimit:4;stroke-dasharray:none"
           id="path98-7-2" />
        <path
           d="m 38.712661,229.5495 h 2.725808 c 0.332923,0 0.520193,-0.29131 0.426558,-0.41616 l -3.589328,-5.74293 c 1.373308,-0.47858 2.871462,-1.56058 2.871462,-4.01589 0,-4.39042 -5.05627,-4.39042 -5.05627,-4.39042 h -4.61931 c -0.249692,0 -0.436961,0.18727 -0.436961,0.37454 v 2.35127 l 1.061192,1.70623 c 0.291308,0.45777 0.603424,0.87392 0.873924,1.33169 h -1.498155 c -0.249692,0 -0.436961,0.18727 -0.436961,0.37454 v 8.07339 c 0,0.16646 0.187269,0.35373 0.436961,0.35373 h 2.309655 c 0.2705,0 0.436962,-0.18727 0.436962,-0.35373 v -5.41 h 0.624231 l 3.495693,5.57646 -0.02081,-0.0208 c 0.04162,0.10404 0.2705,0.20808 0.395347,0.20808 z m -2.226424,-8.82246 -1.706231,-2.70501 h 1.310885 c 0.395346,0 1.851885,0 1.851885,1.3525 0,1.01958 -0.790693,1.31089 -1.456539,1.35251 z"
           style="font-weight:900;font-family:'Baron Neue';-inkscape-font-specification:'Baron Neue Heavy';text-align:end;text-anchor:end;fill:#ff66c4;fill-opacity:1;stroke-width:0.52;stroke-miterlimit:4;stroke-dasharray:none"
           id="path100-7-2"
           sodipodi:nodetypes="csccscsscccssssssccccscccssc" />
      </g>
      <g
         aria-label="ExETER PHOTONICS"
         transform="matrix(1.0153056,0,0,0.98492513,94.672629,42.257878)"
         id="text1101-93"
         style="font-size:20.8077px;line-height:1.1;font-family:'Red Hat Mono';-inkscape-font-specification:'Red Hat Mono';text-align:center;word-spacing:0px;text-anchor:middle;fill:#ffffff;stroke:#000000;stroke-width:0.52;stroke-miterlimit:4;stroke-dasharray:none">
        <path
           d="m -25.853582,217.95961 h 6.304733 c 0.249692,0 0.436961,-0.18727 0.436961,-0.37454 v -2.22642 c 0,-0.18727 -0.187269,-0.37454 -0.436961,-0.37454 h -9.051349 c -0.2705,0 -0.436962,0.18727 -0.436962,0.37454 v 13.83712 c 0,0.16646 0.166462,0.35373 0.436962,0.35373 h 9.21781 c 0.2705,0 0.45777,-0.18727 0.45777,-0.35373 v -2.30966 c 0,-0.18727 -0.18727,-0.37453 -0.45777,-0.37453 h -6.471194 v -2.78824 h 5.326771 c 0.249692,0 0.416154,-0.18727 0.416154,-0.35373 v -2.24723 c 0,-0.18727 -0.166462,-0.37454 -0.416154,-0.37454 h -5.326771 z"
           style="font-weight:900;font-family:'Baron Neue';-inkscape-font-specification:'Baron Neue Heavy';text-align:end;text-anchor:end;stroke-width:0.52;stroke-miterlimit:4;stroke-dasharray:none"
           id="path90-3" />
        <path
           d="m -13.202514,222.41246 -4.775366,6.68967 c -0.09363,0.13525 0.07282,0.44737 0.468174,0.44737 h 2.746616 c 0.08323,0 0.291308,-0.0624 0.374539,-0.14565 1.019577,-1.43574 2.101578,-3.03793 3.121155,-4.47366 1.061192,1.51896 2.0183466,2.95469 3.0795393,4.47366 0.062423,0.10403 0.2705,0.14565 0.3537308,0.14565 h 2.7882317 c 0.3329232,0 0.5410002,-0.31212 0.3537309,-0.58262 -0.8739233,-1.20684 -1.8310775,-2.53854 -2.7050009,-3.76619 -0.686654,-0.93635 -1.310885,-1.87269 -1.9975391,-2.78823 l 4.70254,-6.67927 c 0.1872693,-0.2705 -0.020808,-0.58262 -0.3537309,-0.58262 h -2.7882317 c -0.062423,0 -0.2913077,0.0624 -0.3537308,0.12485 l -3.0795393,4.49446 c -1.061193,-1.51896 -2.08077,-2.9755 -3.121155,-4.49446 -0.08323,-0.0832 -0.2705,-0.12485 -0.374539,-0.12485 h -2.746616 c -0.395346,0 -0.561808,0.31212 1.113211,2.71541 1.675019,2.40329 2.424096,3.46448 3.193981,4.54648 z"
           style="font-weight:900;font-family:'Baron Neue';-inkscape-font-specification:'Baron Neue Heavy';text-align:end;text-anchor:end;stroke-width:0.52;stroke-miterlimit:4;stroke-dasharray:none"
           id="path92-09"
           sodipodi:nodetypes="ccsscccssccccsscccsscc" />
        <path
           d="M 0.40571627,217.95961 H 6.7104491 c 0.2496924,0 0.4369617,-0.18727 0.4369617,-0.37454 v -2.22642 c 0,-0.18727 -0.1872693,-0.37454 -0.4369617,-0.37454 H -2.3409 c -0.2705001,0 -0.4369617,0.18727 -0.4369617,0.37454 v 13.83712 c 0,0.16646 0.1664616,0.35373 0.4369617,0.35373 h 9.2178107 c 0.2705001,0 0.4577694,-0.18727 0.4577694,-0.35373 v -2.30966 c 0,-0.18727 -0.1872693,-0.37453 -0.4577694,-0.37453 H 0.40571627 v -2.78824 H 5.7324873 c 0.2496924,0 0.4161539,-0.18727 0.4161539,-0.35373 v -2.24723 c 0,-0.18727 -0.1664615,-0.37454 -0.4161539,-0.37454 H 0.40571627 Z"
           style="font-weight:900;font-family:'Baron Neue';-inkscape-font-specification:'Baron Neue Heavy';text-align:end;text-anchor:end;stroke-width:0.52;stroke-miterlimit:4;stroke-dasharray:none"
           id="path94-4" />
        <path
           d="m 17.239133,217.46023 v -2.10158 c 0,-0.18727 -0.18727,-0.37454 -0.45777,-0.37454 H 8.6663605 c -0.2496924,0 -0.4369617,0.18727 -0.4369617,0.37454 v 2.10158 c 0,0.16646 0.1872693,0.35373 0.4369617,0.35373 h 2.4761165 v 11.38181 c 0,0.16646 0.187269,0.35373 0.436961,0.35373 h 2.288847 c 0.2705,0 0.45777,-0.18727 0.45777,-0.35373 v -11.38181 h 2.455308 c 0.2705,0 0.45777,-0.18727 0.45777,-0.35373 z"
           style="font-weight:900;font-family:'Baron Neue';-inkscape-font-specification:'Baron Neue Heavy';text-align:end;text-anchor:end;stroke-width:0.52;stroke-miterlimit:4;stroke-dasharray:none"
           id="path96-6" />
        <path
           d="m 21.962477,217.95961 h 6.304733 c 0.249692,0 0.436962,-0.18727 0.436962,-0.37454 v -2.22642 c 0,-0.18727 -0.18727,-0.37454 -0.436962,-0.37454 h -9.051349 c -0.2705,0 -0.436962,0.18727 -0.436962,0.37454 v 13.83712 c 0,0.16646 0.166462,0.35373 0.436962,0.35373 h 9.217811 c 0.2705,0 0.457769,-0.18727 0.457769,-0.35373 v -2.30966 c 0,-0.18727 -0.187269,-0.37453 -0.457769,-0.37453 h -6.471195 v -2.78824 h 5.326771 c 0.249692,0 0.416154,-0.18727 0.416154,-0.35373 v -2.24723 c 0,-0.18727 -0.166462,-0.37454 -0.416154,-0.37454 h -5.326771 z"
           style="font-weight:900;font-family:'Baron Neue';-inkscape-font-specification:'Baron Neue Heavy';text-align:end;text-anchor:end;stroke-width:0.52;stroke-miterlimit:4;stroke-dasharray:none"
           id="path98-3" />
        <path
           d="m 38.712661,229.5495 h 2.725808 c 0.332923,0 0.520193,-0.29131 0.426558,-0.41616 l -3.589328,-5.74293 c 1.373308,-0.47858 2.871462,-1.56058 2.871462,-4.01589 0,-4.39042 -5.05627,-4.39042 -5.05627,-4.39042 h -4.61931 c -0.249692,0 -0.436961,0.18727 -0.436961,0.37454 v 2.35127 l 1.061192,1.70623 c 0.291308,0.45777 0.603424,0.87392 0.873924,1.33169 h -1.498155 c -0.249692,0 -0.436961,0.18727 -0.436961,0.37454 v 8.07339 c 0,0.16646 0.187269,0.35373 0.436961,0.35373 h 2.309655 c 0.2705,0 0.436962,-0.18727 0.436962,-0.35373 v -5.41 h 0.624231 l 3.495693,5.57646 -0.02081,-0.0208 c 0.04162,0.10404 0.2705,0.20808 0.395347,0.20808 z m -2.226424,-8.82246 -1.706231,-2.70501 h 1.310885 c 0.395346,0 1.851885,0 1.851885,1.3525 0,1.01958 -0.790693,1.31089 -1.456539,1.35251 z"
           style="font-weight:900;font-family:'Baron Neue';-inkscape-font-specification:'Baron Neue Heavy';text-align:end;text-anchor:end;stroke-width:0.52;stroke-miterlimit:4;stroke-dasharray:none"
           id="path100-3"
           sodipodi:nodetypes="csccscsscccssssssccccscccssc" />
      </g>
    </g>
    <g
       id="g5651"
       transform="translate(-135.23518,-183.57757)">
      <path
         d="m 176.96137,266.69248 c 3.10555,0 5.66182,-2.3773 5.66182,-5.34894 0,-2.95114 -2.55627,-5.38992 -5.66182,-5.38992 -3.12667,0 -5.68294,2.43878 -5.68294,5.38992 0,2.97164 2.55627,5.34894 5.68294,5.34894 z m 0,-7.76724 c 1.35208,0 2.42951,1.0657 2.42951,2.4183 0,1.37311 -1.07743,2.37731 -2.42951,2.37731 -1.35207,0 -2.45063,-1.0042 -2.45063,-2.37731 0,-1.3526 1.09856,-2.4183 2.45063,-2.4183 z m 5.02803,11.18975 v -2.25435 c 0,-0.18444 -0.19013,-0.36889 -0.46477,-0.36889 h -9.25327 c -0.27464,0 -0.44365,0.18445 -0.44365,0.36889 v 2.25435 c 0,0.16395 0.16901,0.3484 0.44365,0.3484 h 9.25327 c 0.27464,0 0.46477,-0.18445 0.46477,-0.3484 z m -31.92167,-13.99742 h -4.69001 c -0.27464,0 -0.44365,0.18444 -0.44365,0.36889 v 2.31583 c 0.25351,0.43037 0.59153,0.90174 0.84505,1.33211 0.38027,0.55334 0.71829,1.10667 1.09856,1.66001 h -1.49996 c -0.27464,0 -0.44365,0.18445 -0.44365,0.36889 v 7.95169 c 0,0.16395 0.16901,0.3484 0.44365,0.3484 h 2.345 c 0.25352,0 0.44365,-0.18445 0.44365,-0.3484 v -5.32845 h 1.90136 c 0,0 5.11253,0 5.11253,-4.34474 0,-4.32423 -5.11253,-4.32423 -5.11253,-4.32423 z m -1.41545,2.99212 h 1.41545 c 0.38027,0 1.88023,0 1.88023,1.33211 0,0.88125 -0.92955,1.25014 -1.56334,1.33212 z m 19.62621,-2.99212 h -2.345 c -0.25352,0 -0.44365,0.18444 -0.44365,0.36889 v 5.28746 h -4.94353 v -5.28746 c 0,-0.18445 -0.19013,-0.36889 -0.46477,-0.36889 h -2.34501 c -0.25351,0 -0.44365,0.18444 -0.44365,0.36889 v 13.62853 c 0,0.16395 0.19014,0.3484 0.44365,0.3484 h 2.34501 c 0.27464,0 0.46477,-0.18445 0.46477,-0.3484 v -5.32845 h 4.94353 v 5.32845 c 0,0.16395 0.19013,0.3484 0.44365,0.3484 h 2.345 c 0.27464,0 0.46478,-0.18445 0.46478,-0.3484 v -13.62853 c 0,-0.18445 -0.19014,-0.36889 -0.46478,-0.36889 z m 24.84442,2.43879 v -2.0699 c 0,-0.18445 -0.19014,-0.36889 -0.46478,-0.36889 h -8.23921 c -0.25351,0 -0.44365,0.18444 -0.44365,0.36889 v 2.0699 c 0,0.16395 0.19014,0.3484 0.44365,0.3484 h 2.51402 v 11.21023 c 0,0.16395 0.19013,0.3484 0.44365,0.3484 h 2.32388 c 0.27464,0 0.46477,-0.18445 0.46477,-0.3484 v -11.21023 h 2.49289 c 0.27464,0 0.46478,-0.18445 0.46478,-0.3484 z m 45.14665,9.11984 c -2.32388,0 -4.22523,-1.68051 -4.22523,-4.38573 0,-2.52076 1.58446,-4.38571 4.22523,-4.38571 1.16194,0 2.21825,0.47135 3.02104,1.25013 0.14788,0.12296 0.40141,0.12296 0.57041,0 l 1.64784,-1.57804 c 0.12675,-0.12296 0.12675,-0.40988 0.0422,-0.55333 -1.33094,-1.25014 -3.25342,-2.1109 -5.28153,-2.1109 -4.37313,0 -7.49979,3.05362 -7.49979,7.37785 0,4.50869 3.35905,7.37786 7.49979,7.37786 2.02811,0 3.95059,-0.86076 5.28153,-2.0904 0.10564,-0.10247 0.0633,-0.38939 0,-0.53284 l -1.60558,-1.55754 c -0.21126,-0.16396 -0.50703,-0.18445 -0.65491,-0.0615 -0.80279,0.77878 -1.85911,1.25014 -3.02104,1.25014 z m -38.36516,-0.98372 c 3.10555,0 5.66181,-2.3773 5.66181,-5.34894 0,-2.95114 -2.55626,-5.38992 -5.66181,-5.38992 -3.12667,0 -5.68294,2.43878 -5.68294,5.38992 0,2.97164 2.55627,5.34894 5.68294,5.34894 z m 0,-7.76724 c 1.35208,0 2.42952,1.0657 2.42952,2.4183 0,1.37311 -1.07744,2.37731 -2.42952,2.37731 -1.35207,0 -2.45063,-1.0042 -2.45063,-2.37731 0,-1.3526 1.09856,-2.4183 2.45063,-2.4183 z m 5.02803,11.18975 v -2.25435 c 0,-0.18444 -0.19014,-0.36889 -0.46478,-0.36889 h -9.25326 c -0.27464,0 -0.44365,0.18445 -0.44365,0.36889 v 2.25435 c 0,0.16395 0.16901,0.3484 0.44365,0.3484 h 9.25326 c 0.27464,0 0.46478,-0.18445 0.46478,-0.3484 z m 45.27343,0.55334 c 2.49289,0 4.83789,-1.57805 4.83789,-4.38572 0,-1.76249 -0.88729,-3.23806 -2.55627,-3.97584 -1.07743,-0.49186 -2.17599,-0.49186 -2.28162,-0.49186 -0.82392,0 -1.60559,-0.47137 -1.60559,-1.37311 0,-1.02469 0.73941,-1.53704 1.60559,-1.53704 0.82392,0 1.52108,0.43037 1.56334,1.29112 0,0.14346 0.23238,0.34839 0.46477,0.34839 h 2.30276 c 0.27464,0 0.46476,-0.20493 0.46476,-0.34839 -0.0422,-2.54126 -2.13373,-4.28326 -4.79563,-4.28326 -2.47176,0 -4.8379,1.72151 -4.8379,4.52918 0,1.7625 0.92955,3.07411 2.53515,3.8119 1.11969,0.49185 2.17599,0.49185 2.30275,0.49185 0.73942,0.0615 1.60559,0.61482 1.60559,1.53706 0,0.84025 -0.73942,1.39359 -1.60559,1.39359 -0.82392,0 -1.56334,-0.45087 -1.60559,-1.33212 0,-0.18444 -0.21127,-0.36889 -0.44365,-0.36889 h -2.345 c -0.25352,0 -0.44366,0.18445 -0.44366,0.36889 0.0422,2.7462 2.15488,4.26276 4.8379,4.32425 z m -29.4288,-0.55334 v -13.62853 c 0,-0.18445 -0.169,-0.36889 -0.44364,-0.36889 h -2.32388 c -0.27464,0 -0.44365,0.18444 -0.44365,0.36889 v 8.32057 c -2.13375,-2.97163 -4.07736,-5.59487 -6.18998,-8.54601 -0.0845,-0.10246 -0.27464,-0.14345 -0.35914,-0.14345 h -2.38726 c -0.25351,0 -0.44365,0.18444 -0.44365,0.36889 v 13.62853 c 0,0.16395 0.19014,0.3484 0.44365,0.3484 h 2.36614 c 0.25351,0 0.44365,-0.18445 0.44365,-0.3484 v -8.36156 l 6.16884,8.5665 c 0.0845,0.10246 0.27464,0.14346 0.35915,0.14346 h 2.36613 c 0.27464,0 0.44364,-0.18445 0.44364,-0.3484 z m 6.95053,-11.21023 h 1.11969 c 0.27464,0 0.44365,-0.18445 0.44365,-0.3484 v -2.0699 c 0,-0.18445 -0.16901,-0.36889 -0.44365,-0.36889 h -5.4928 c -0.25351,0 -0.44365,0.18444 -0.44365,0.36889 v 2.0699 c 0,0.16395 0.19014,0.3484 0.44365,0.3484 h 1.14081 v 8.77144 h -1.22531 c -0.25353,0 -0.44365,0.18444 -0.44365,0.34839 v 2.0904 c 0,0.16395 0.19012,0.3484 0.44365,0.3484 h 5.66181 c 0.25351,0 0.44364,-0.18445 0.44364,-0.3484 v -2.0904 c 0,-0.16395 -0.19013,-0.34839 -0.44364,-0.34839 h -1.2042 z"
         style="font-weight:900;font-family:'Baron Neue';-inkscape-font-specification:'Baron Neue Heavy';text-align:end;text-anchor:end;fill:#38b6ff;fill-opacity:1;stroke:#000000;stroke-width:0.52;stroke-miterlimit:4;stroke-dasharray:none"
         id="path4272-0" />
      <path
         d="m 179.79108,262.4596 c 3.10555,0 5.66182,-2.3773 5.66182,-5.34894 0,-2.95114 -2.55627,-5.38992 -5.66182,-5.38992 -3.12667,0 -5.68293,2.43878 -5.68293,5.38992 0,2.97164 2.55626,5.34894 5.68293,5.34894 z m 0,-7.76724 c 1.35208,0 2.42951,1.0657 2.42951,2.4183 0,1.37311 -1.07743,2.37731 -2.42951,2.37731 -1.35207,0 -2.45063,-1.0042 -2.45063,-2.37731 0,-1.3526 1.09856,-2.4183 2.45063,-2.4183 z m 5.02803,11.18975 v -2.25435 c 0,-0.18444 -0.19013,-0.36889 -0.46477,-0.36889 h -9.25327 c -0.27464,0 -0.44364,0.18445 -0.44364,0.36889 v 2.25435 c 0,0.16395 0.169,0.3484 0.44364,0.3484 h 9.25327 c 0.27464,0 0.46477,-0.18445 0.46477,-0.3484 z m -31.92167,-13.99742 h -4.69 c -0.27464,0 -0.44365,0.18444 -0.44365,0.36889 v 2.31583 c 0.25351,0.43037 0.59153,0.90174 0.84504,1.33211 0.38027,0.55334 0.71829,1.10667 1.09856,1.66001 h -1.49995 c -0.27464,0 -0.44365,0.18445 -0.44365,0.36889 v 7.95169 c 0,0.16395 0.16901,0.3484 0.44365,0.3484 h 2.345 c 0.25351,0 0.44365,-0.18445 0.44365,-0.3484 v -5.32845 h 1.90135 c 0,0 5.11254,0 5.11254,-4.34474 0,-4.32423 -5.11254,-4.32423 -5.11254,-4.32423 z m -1.41545,2.99212 h 1.41545 c 0.38028,0 1.88023,0 1.88023,1.33211 0,0.88125 -0.92955,1.25014 -1.56333,1.33212 z m 19.62622,-2.99212 h -2.34501 c -0.25351,0 -0.44365,0.18444 -0.44365,0.36889 v 5.28746 h -4.94352 v -5.28746 c 0,-0.18445 -0.19014,-0.36889 -0.46478,-0.36889 h -2.345 c -0.25352,0 -0.44365,0.18444 -0.44365,0.36889 v 13.62853 c 0,0.16395 0.19013,0.3484 0.44365,0.3484 h 2.345 c 0.27464,0 0.46478,-0.18445 0.46478,-0.3484 v -5.32845 h 4.94352 v 5.32845 c 0,0.16395 0.19014,0.3484 0.44365,0.3484 h 2.34501 c 0.27464,0 0.46478,-0.18445 0.46478,-0.3484 v -13.62853 c 0,-0.18445 -0.19014,-0.36889 -0.46478,-0.36889 z m 24.84441,2.43879 v -2.0699 c 0,-0.18445 -0.19014,-0.36889 -0.46478,-0.36889 h -8.23921 c -0.25351,0 -0.44365,0.18444 -0.44365,0.36889 v 2.0699 c 0,0.16395 0.19014,0.3484 0.44365,0.3484 h 2.51402 v 11.21023 c 0,0.16395 0.19013,0.3484 0.44365,0.3484 h 2.32388 c 0.27464,0 0.46477,-0.18445 0.46477,-0.3484 v -11.21023 h 2.49289 c 0.27464,0 0.46478,-0.18445 0.46478,-0.3484 z m 45.14666,9.11984 c -2.32388,0 -4.22523,-1.68051 -4.22523,-4.38573 0,-2.52076 1.58446,-4.38571 4.22523,-4.38571 1.16194,0 2.21825,0.47135 3.02104,1.25013 0.14788,0.12296 0.40141,0.12296 0.57041,0 l 1.64784,-1.57804 c 0.12675,-0.12296 0.12675,-0.40988 0.0422,-0.55333 -1.33094,-1.25014 -3.25342,-2.1109 -5.28153,-2.1109 -4.37313,0 -7.49979,3.05362 -7.49979,7.37785 0,4.50869 3.35905,7.37786 7.49979,7.37786 2.02811,0 3.95059,-0.86076 5.28153,-2.0904 0.10564,-0.10247 0.0633,-0.38939 0,-0.53284 l -1.60558,-1.55754 c -0.21126,-0.16396 -0.50703,-0.18445 -0.65491,-0.0615 -0.80279,0.77878 -1.85911,1.25014 -3.02104,1.25014 z m -38.36516,-0.98372 c 3.10555,0 5.66181,-2.3773 5.66181,-5.34894 0,-2.95114 -2.55626,-5.38992 -5.66181,-5.38992 -3.12667,0 -5.68294,2.43878 -5.68294,5.38992 0,2.97164 2.55627,5.34894 5.68294,5.34894 z m 0,-7.76724 c 1.35208,0 2.42952,1.0657 2.42952,2.4183 0,1.37311 -1.07744,2.37731 -2.42952,2.37731 -1.35207,0 -2.45063,-1.0042 -2.45063,-2.37731 0,-1.3526 1.09856,-2.4183 2.45063,-2.4183 z m 5.02803,11.18975 v -2.25435 c 0,-0.18444 -0.19014,-0.36889 -0.46478,-0.36889 h -9.25326 c -0.27464,0 -0.44365,0.18445 -0.44365,0.36889 v 2.25435 c 0,0.16395 0.16901,0.3484 0.44365,0.3484 h 9.25326 c 0.27464,0 0.46478,-0.18445 0.46478,-0.3484 z m 45.27343,0.55334 c 2.49289,0 4.83789,-1.57805 4.83789,-4.38572 0,-1.76249 -0.88729,-3.23806 -2.55627,-3.97584 -1.07743,-0.49186 -2.17599,-0.49186 -2.28162,-0.49186 -0.82392,0 -1.60559,-0.47137 -1.60559,-1.37311 0,-1.02469 0.73941,-1.53704 1.60559,-1.53704 0.82392,0 1.52108,0.43037 1.56334,1.29112 0,0.14346 0.23238,0.34839 0.46477,0.34839 h 2.30276 c 0.27464,0 0.46476,-0.20493 0.46476,-0.34839 -0.0422,-2.54126 -2.13373,-4.28326 -4.79563,-4.28326 -2.47176,0 -4.8379,1.72151 -4.8379,4.52918 0,1.7625 0.92955,3.07411 2.53515,3.8119 1.11969,0.49185 2.17599,0.49185 2.30275,0.49185 0.73942,0.0615 1.60559,0.61482 1.60559,1.53706 0,0.84025 -0.73942,1.39359 -1.60559,1.39359 -0.82392,0 -1.56334,-0.45087 -1.60559,-1.33212 0,-0.18444 -0.21127,-0.36889 -0.44365,-0.36889 h -2.345 c -0.25352,0 -0.44366,0.18445 -0.44366,0.36889 0.0422,2.7462 2.15488,4.26276 4.8379,4.32425 z m -29.4288,-0.55334 v -13.62853 c 0,-0.18445 -0.169,-0.36889 -0.44364,-0.36889 h -2.32388 c -0.27464,0 -0.44365,0.18444 -0.44365,0.36889 v 8.32057 c -2.13375,-2.97163 -4.07736,-5.59487 -6.18998,-8.54601 -0.0845,-0.10246 -0.27464,-0.14345 -0.35914,-0.14345 h -2.38726 c -0.25351,0 -0.44365,0.18444 -0.44365,0.36889 v 13.62853 c 0,0.16395 0.19014,0.3484 0.44365,0.3484 h 2.36614 c 0.25351,0 0.44365,-0.18445 0.44365,-0.3484 v -8.36156 l 6.16884,8.5665 c 0.0845,0.10246 0.27464,0.14346 0.35915,0.14346 h 2.36613 c 0.27464,0 0.44364,-0.18445 0.44364,-0.3484 z m 6.95053,-11.21023 h 1.11969 c 0.27464,0 0.44365,-0.18445 0.44365,-0.3484 v -2.0699 c 0,-0.18445 -0.16901,-0.36889 -0.44365,-0.36889 h -5.4928 c -0.25351,0 -0.44365,0.18444 -0.44365,0.36889 v 2.0699 c 0,0.16395 0.19014,0.3484 0.44365,0.3484 h 1.14081 v 8.77144 h -1.22531 c -0.25353,0 -0.44365,0.18444 -0.44365,0.34839 v 2.0904 c 0,0.16395 0.19012,0.3484 0.44365,0.3484 h 5.66181 c 0.25351,0 0.44364,-0.18445 0.44364,-0.3484 v -2.0904 c 0,-0.16395 -0.19013,-0.34839 -0.44364,-0.34839 h -1.2042 z"
         style="font-weight:900;font-family:'Baron Neue';-inkscape-font-specification:'Baron Neue Heavy';text-align:end;text-anchor:end;fill:#ff66c4;fill-opacity:1;stroke:#000000;stroke-width:0.52;stroke-miterlimit:4;stroke-dasharray:none"
         id="path4272-0-4" />
      <path
         d="m 178.35348,264.57604 c 3.10555,0 5.66182,-2.3773 5.66182,-5.34894 0,-2.95114 -2.55627,-5.38992 -5.66182,-5.38992 -3.12667,0 -5.68294,2.43878 -5.68294,5.38992 0,2.97164 2.55627,5.34894 5.68294,5.34894 z m 0,-7.76724 c 1.35208,0 2.42951,1.0657 2.42951,2.4183 0,1.37311 -1.07743,2.37731 -2.42951,2.37731 -1.35207,0 -2.45063,-1.0042 -2.45063,-2.37731 0,-1.3526 1.09856,-2.4183 2.45063,-2.4183 z m 5.02803,11.18975 v -2.25435 c 0,-0.18444 -0.19013,-0.36889 -0.46477,-0.36889 h -9.25327 c -0.27464,0 -0.44365,0.18445 -0.44365,0.36889 v 2.25435 c 0,0.16395 0.16901,0.3484 0.44365,0.3484 h 9.25327 c 0.27464,0 0.46477,-0.18445 0.46477,-0.3484 z m -31.92167,-13.99742 h -4.69001 c -0.27464,0 -0.44365,0.18444 -0.44365,0.36889 v 2.31583 c 0.25352,0.43037 0.59154,0.90174 0.84505,1.33211 0.38027,0.55334 0.71829,1.10667 1.09856,1.66001 h -1.49996 c -0.27464,0 -0.44365,0.18445 -0.44365,0.36889 v 7.95169 c 0,0.16395 0.16901,0.3484 0.44365,0.3484 h 2.34501 c 0.25351,0 0.44365,-0.18445 0.44365,-0.3484 v -5.32845 h 1.90135 c 0,0 5.11254,0 5.11254,-4.34474 0,-4.32423 -5.11254,-4.32423 -5.11254,-4.32423 z m -1.41545,2.99212 h 1.41545 c 0.38027,0 1.88023,0 1.88023,1.33211 0,0.88125 -0.92955,1.25014 -1.56333,1.33212 z m 19.62621,-2.99212 h -2.345 c -0.25351,0 -0.44365,0.18444 -0.44365,0.36889 v 5.28746 h -4.94352 v -5.28746 c 0,-0.18445 -0.19014,-0.36889 -0.46478,-0.36889 h -2.34501 c -0.25351,0 -0.44364,0.18444 -0.44364,0.36889 v 13.62853 c 0,0.16395 0.19013,0.3484 0.44364,0.3484 h 2.34501 c 0.27464,0 0.46478,-0.18445 0.46478,-0.3484 v -5.32845 h 4.94352 v 5.32845 c 0,0.16395 0.19014,0.3484 0.44365,0.3484 h 2.345 c 0.27465,0 0.46478,-0.18445 0.46478,-0.3484 v -13.62853 c 0,-0.18445 -0.19013,-0.36889 -0.46478,-0.36889 z m 24.84442,2.43879 v -2.0699 c 0,-0.18445 -0.19014,-0.36889 -0.46478,-0.36889 h -8.23921 c -0.25351,0 -0.44365,0.18444 -0.44365,0.36889 v 2.0699 c 0,0.16395 0.19014,0.3484 0.44365,0.3484 h 2.51402 v 11.21023 c 0,0.16395 0.19013,0.3484 0.44365,0.3484 h 2.32388 c 0.27464,0 0.46477,-0.18445 0.46477,-0.3484 v -11.21023 h 2.49289 c 0.27464,0 0.46478,-0.18445 0.46478,-0.3484 z m 45.14666,9.11984 c -2.32388,0 -4.22523,-1.68051 -4.22523,-4.38573 0,-2.52076 1.58446,-4.38571 4.22523,-4.38571 1.16194,0 2.21825,0.47135 3.02104,1.25013 0.14788,0.12296 0.40141,0.12296 0.57041,0 l 1.64784,-1.57804 c 0.12675,-0.12296 0.12675,-0.40988 0.0422,-0.55333 -1.33094,-1.25014 -3.25342,-2.1109 -5.28153,-2.1109 -4.37313,0 -7.49979,3.05362 -7.49979,7.37785 0,4.50869 3.35905,7.37786 7.49979,7.37786 2.02811,0 3.95059,-0.86076 5.28153,-2.0904 0.10564,-0.10247 0.0633,-0.38939 0,-0.53284 l -1.60558,-1.55754 c -0.21126,-0.16396 -0.50703,-0.18445 -0.65491,-0.0615 -0.80279,0.77878 -1.85911,1.25014 -3.02104,1.25014 z m -38.36516,-0.98372 c 3.10555,0 5.66181,-2.3773 5.66181,-5.34894 0,-2.95114 -2.55626,-5.38992 -5.66181,-5.38992 -3.12667,0 -5.68294,2.43878 -5.68294,5.38992 0,2.97164 2.55627,5.34894 5.68294,5.34894 z m 0,-7.76724 c 1.35208,0 2.42952,1.0657 2.42952,2.4183 0,1.37311 -1.07744,2.37731 -2.42952,2.37731 -1.35207,0 -2.45063,-1.0042 -2.45063,-2.37731 0,-1.3526 1.09856,-2.4183 2.45063,-2.4183 z m 5.02803,11.18975 v -2.25435 c 0,-0.18444 -0.19014,-0.36889 -0.46478,-0.36889 h -9.25326 c -0.27464,0 -0.44365,0.18445 -0.44365,0.36889 v 2.25435 c 0,0.16395 0.16901,0.3484 0.44365,0.3484 h 9.25326 c 0.27464,0 0.46478,-0.18445 0.46478,-0.3484 z m 45.27343,0.55334 c 2.49289,0 4.83789,-1.57805 4.83789,-4.38572 0,-1.76249 -0.88729,-3.23806 -2.55627,-3.97584 -1.07743,-0.49186 -2.17599,-0.49186 -2.28162,-0.49186 -0.82392,0 -1.60559,-0.47137 -1.60559,-1.37311 0,-1.02469 0.73941,-1.53704 1.60559,-1.53704 0.82392,0 1.52108,0.43037 1.56334,1.29112 0,0.14346 0.23238,0.34839 0.46477,0.34839 h 2.30276 c 0.27464,0 0.46476,-0.20493 0.46476,-0.34839 -0.0422,-2.54126 -2.13373,-4.28326 -4.79563,-4.28326 -2.47176,0 -4.8379,1.72151 -4.8379,4.52918 0,1.7625 0.92955,3.07411 2.53515,3.8119 1.11969,0.49185 2.17599,0.49185 2.30275,0.49185 0.73942,0.0615 1.60559,0.61482 1.60559,1.53706 0,0.84025 -0.73942,1.39359 -1.60559,1.39359 -0.82392,0 -1.56334,-0.45087 -1.60559,-1.33212 0,-0.18444 -0.21127,-0.36889 -0.44365,-0.36889 h -2.345 c -0.25352,0 -0.44366,0.18445 -0.44366,0.36889 0.0422,2.7462 2.15488,4.26276 4.8379,4.32425 z m -29.4288,-0.55334 v -13.62853 c 0,-0.18445 -0.169,-0.36889 -0.44364,-0.36889 h -2.32388 c -0.27464,0 -0.44365,0.18444 -0.44365,0.36889 v 8.32057 c -2.13375,-2.97163 -4.07736,-5.59487 -6.18998,-8.54601 -0.0845,-0.10246 -0.27464,-0.14345 -0.35914,-0.14345 h -2.38726 c -0.25351,0 -0.44365,0.18444 -0.44365,0.36889 v 13.62853 c 0,0.16395 0.19014,0.3484 0.44365,0.3484 h 2.36614 c 0.25351,0 0.44365,-0.18445 0.44365,-0.3484 v -8.36156 l 6.16884,8.5665 c 0.0845,0.10246 0.27464,0.14346 0.35915,0.14346 h 2.36613 c 0.27464,0 0.44364,-0.18445 0.44364,-0.3484 z m 6.95053,-11.21023 h 1.11969 c 0.27464,0 0.44365,-0.18445 0.44365,-0.3484 v -2.0699 c 0,-0.18445 -0.16901,-0.36889 -0.44365,-0.36889 h -5.4928 c -0.25351,0 -0.44365,0.18444 -0.44365,0.36889 v 2.0699 c 0,0.16395 0.19014,0.3484 0.44365,0.3484 h 1.14081 v 8.77144 h -1.22531 c -0.25353,0 -0.44365,0.18444 -0.44365,0.34839 v 2.0904 c 0,0.16395 0.19012,0.3484 0.44365,0.3484 h 5.66181 c 0.25351,0 0.44364,-0.18445 0.44364,-0.3484 v -2.0904 c 0,-0.16395 -0.19013,-0.34839 -0.44364,-0.34839 h -1.2042 z"
         style="font-weight:900;font-family:'Baron Neue';-inkscape-font-specification:'Baron Neue Heavy';text-align:end;text-anchor:end;fill:#ffffff;stroke:#000000;stroke-width:0.52;stroke-miterlimit:4;stroke-dasharray:none"
         id="path4272" />
    </g>
  </g>
</svg>
