<?xml version="1.0" encoding="UTF-8" standalone="no"?>
<!DOCTYPE svg PUBLIC "-//W3C//DTD SVG 1.1//EN"
 "http://www.w3.org/Graphics/SVG/1.1/DTD/svg11.dtd">
<!-- Generated by graphviz version 2.49.1 (0)
 -->
<!-- Title: graphname Pages: 1 -->
<svg width="513pt" height="125pt"
 viewBox="0.00 0.00 512.60 125.00" xmlns="http://www.w3.org/2000/svg" xmlns:xlink="http://www.w3.org/1999/xlink">
<g id="graph0" class="graph" transform="scale(1 1) rotate(0) translate(4 121)">
<title>graphname</title>
<!-- x -->
<g id="node1" class="node">
<title>x</title>
<ellipse fill="#c6e7ec" stroke="black" cx="477.6" cy="-99" rx="27" ry="18"/>
<text text-anchor="middle" x="477.6" y="-95.3" font-family="Times,serif" font-size="14.00">x</text>
<text text-anchor="middle" x="441.6" y="-69.8" font-family="Times,serif" font-size="14.00">w₁</text>
</g>
<!-- mul1 -->
<g id="node2" class="node">
<title>mul1</title>
<ellipse fill="white" stroke="black" cx="387.6" cy="-72" rx="27" ry="18"/>
<text text-anchor="middle" x="387.6" y="-68.3" font-family="Times,serif" font-size="14.00">×</text>
<text text-anchor="middle" x="351.6" y="-42.8" font-family="Times,serif" font-size="14.00">w₂</text>
</g>
<!-- mul1&#45;&gt;x -->
<g id="edge5" class="edge">
<title>mul1&#45;&gt;x</title>
<path fill="none" stroke="black" d="M412.64,-79.38C422.03,-82.26 432.96,-85.61 443.09,-88.72"/>
<polygon fill="black" stroke="black" points="442.3,-92.14 452.88,-91.72 444.35,-85.45 442.3,-92.14"/>
</g>
<!-- imag -->
<g id="node6" class="node">
<title>imag</title>
<ellipse fill="#edd9a6" stroke="black" cx="477.6" cy="-45" rx="27" ry="18"/>
<text text-anchor="middle" x="477.6" y="-41.3" font-family="Times,serif" font-size="14.00">i</text>
</g>
<!-- mul1&#45;&gt;imag -->
<g id="edge7" class="edge">
<title>mul1&#45;&gt;imag</title>
<path fill="none" stroke="black" d="M412.64,-64.62C422.03,-61.74 432.96,-58.39 443.09,-55.28"/>
<polygon fill="black" stroke="black" points="444.35,-58.55 452.88,-52.28 442.3,-51.86 444.35,-58.55"/>
</g>
<!-- exp -->
<g id="node3" class="node">
<title>exp</title>
<ellipse fill="white" stroke="black" cx="297.3" cy="-72" rx="27.1" ry="18"/>
<text text-anchor="middle" x="297.3" y="-68.3" font-family="Times,serif" font-size="14.00">exp</text>
<text text-anchor="middle" x="261" y="-42.8" font-family="Times,serif" font-size="14.00">w₃</text>
</g>
<!-- exp&#45;&gt;mul1 -->
<g id="edge4" class="edge">
<title>exp&#45;&gt;mul1</title>
<path fill="none" stroke="black" d="M324.79,-72C332.81,-72 341.75,-72 350.3,-72"/>
<polygon fill="black" stroke="black" points="350.43,-75.5 360.43,-72 350.43,-68.5 350.43,-75.5"/>
</g>
<!-- decrement -->
<g id="node4" class="node">
<title>decrement</title>
<ellipse fill="white" stroke="black" cx="207" cy="-45" rx="27" ry="18"/>
<text text-anchor="middle" x="207" y="-41.3" font-family="Times,serif" font-size="14.00">&#45;</text>
<text text-anchor="middle" x="171" y="-15.8" font-family="Times,serif" font-size="14.00">w₄</text>
</g>
<!-- decrement&#45;&gt;exp -->
<g id="edge3" class="edge">
<title>decrement&#45;&gt;exp</title>
<path fill="none" stroke="black" d="M232.13,-52.38C241.47,-55.24 252.33,-58.56 262.44,-61.65"/>
<polygon fill="black" stroke="black" points="261.61,-65.05 272.2,-64.63 263.66,-58.36 261.61,-65.05"/>
</g>
<!-- one -->
<g id="node8" class="node">
<title>one</title>
<ellipse fill="#edd9a6" stroke="black" cx="297.3" cy="-18" rx="27" ry="18"/>
<text text-anchor="middle" x="297.3" y="-14.3" font-family="Times,serif" font-size="14.00">1</text>
</g>
<!-- decrement&#45;&gt;one -->
<g id="edge6" class="edge">
<title>decrement&#45;&gt;one</title>
<path fill="none" stroke="black" d="M232.13,-37.62C241.55,-34.74 252.51,-31.39 262.68,-28.28"/>
<polygon fill="black" stroke="black" points="263.97,-31.55 272.5,-25.28 261.92,-24.85 263.97,-31.55"/>
</g>
<!-- mul2 -->
<g id="node5" class="node">
<title>mul2</title>
<ellipse fill="white" stroke="black" cx="117" cy="-45" rx="27" ry="18"/>
<text text-anchor="middle" x="117" y="-41.3" font-family="Times,serif" font-size="14.00">×</text>
<text text-anchor="middle" x="81" y="-15.8" font-family="Times,serif" font-size="14.00">w₅</text>
</g>
<!-- mul2&#45;&gt;decrement -->
<g id="edge2" class="edge">
<title>mul2&#45;&gt;decrement</title>
<path fill="none" stroke="black" d="M142.51,-38.88C151.4,-38.27 161.62,-38.1 171.22,-38.38"/>
<polygon fill="black" stroke="black" points="171.16,-41.88 181.31,-38.86 171.49,-34.89 171.16,-41.88"/>
</g>
<!-- mul2&#45;&gt;decrement -->
<g id="edge8" class="edge">
<title>mul2&#45;&gt;decrement</title>
<path fill="none" stroke="black" d="M142.51,-51.12C151.4,-51.73 161.62,-51.9 171.22,-51.62"/>
<polygon fill="black" stroke="black" points="171.49,-55.11 181.31,-51.14 171.16,-48.12 171.49,-55.11"/>
<text text-anchor="middle" x="146.64" y="-55.55" font-family="Times,serif" font-size="14.00">conj</text>
</g>
<!-- loss -->
<g id="node7" class="node">
<title>loss</title>
<ellipse fill="#ecc6d3" stroke="black" cx="27" cy="-45" rx="27" ry="18"/>
<text text-anchor="middle" x="27" y="-41.3" font-family="Times,serif" font-size="14.00">ℒ</text>
</g>
<!-- loss&#45;&gt;mul2 -->
<g id="edge1" class="edge">
<title>loss&#45;&gt;mul2</title>
<path fill="none" stroke="black" d="M54.4,-45C62.39,-45 71.31,-45 79.82,-45"/>
<polygon fill="black" stroke="black" points="79.92,-48.5 89.92,-45 79.92,-41.5 79.92,-48.5"/>
</g>
</g>
</svg>
