<?xml version="1.0" encoding="UTF-8" standalone="no"?>
<!DOCTYPE svg PUBLIC "-//W3C//DTD SVG 1.1//EN"
 "http://www.w3.org/Graphics/SVG/1.1/DTD/svg11.dtd">
<!-- Generated by graphviz version 2.49.1 (0)
 -->
<!-- Title: graphname Pages: 1 -->
<svg width="531pt" height="125pt"
 viewBox="0.00 0.00 530.60 125.00" xmlns="http://www.w3.org/2000/svg" xmlns:xlink="http://www.w3.org/1999/xlink">
<g id="graph0" class="graph" transform="scale(1 1) rotate(0) translate(4 121)">
<title>graphname</title>
<!-- x -->
<g id="node1" class="node">
<title>x</title>
<ellipse fill="#c6e7ec" stroke="black" cx="45" cy="-99" rx="27" ry="18"/>
<text text-anchor="middle" x="45" y="-95.3" font-family="Times,serif" font-size="14.00">x</text>
<text text-anchor="middle" x="9" y="-69.8" font-family="Times,serif" font-size="14.00">w₁</text>
</g>
<!-- mul1 -->
<g id="node2" class="node">
<title>mul1</title>
<ellipse fill="white" stroke="black" cx="135" cy="-72" rx="27" ry="18"/>
<text text-anchor="middle" x="135" y="-68.3" font-family="Times,serif" font-size="14.00">×</text>
<text text-anchor="middle" x="99" y="-42.8" font-family="Times,serif" font-size="14.00">w₂</text>
</g>
<!-- x&#45;&gt;mul1 -->
<g id="edge1" class="edge">
<title>x&#45;&gt;mul1</title>
<path fill="none" stroke="black" d="M70.05,-91.62C79.44,-88.74 90.36,-85.39 100.5,-82.28"/>
<polygon fill="black" stroke="black" points="101.75,-85.55 110.29,-79.28 99.7,-78.86 101.75,-85.55"/>
</g>
<!-- exp -->
<g id="node3" class="node">
<title>exp</title>
<ellipse fill="white" stroke="black" cx="225.3" cy="-72" rx="27.1" ry="18"/>
<text text-anchor="middle" x="225.3" y="-68.3" font-family="Times,serif" font-size="14.00">exp</text>
<text text-anchor="middle" x="189" y="-42.8" font-family="Times,serif" font-size="14.00">w₃</text>
</g>
<!-- mul1&#45;&gt;exp -->
<g id="edge2" class="edge">
<title>mul1&#45;&gt;exp</title>
<path fill="none" stroke="black" d="M162.01,-72C170.04,-72 179.04,-72 187.65,-72"/>
<polygon fill="black" stroke="black" points="187.86,-75.5 197.86,-72 187.86,-68.5 187.86,-75.5"/>
</g>
<!-- decrement -->
<g id="node4" class="node">
<title>decrement</title>
<ellipse fill="white" stroke="black" cx="315.6" cy="-45" rx="27" ry="18"/>
<text text-anchor="middle" x="315.6" y="-41.3" font-family="Times,serif" font-size="14.00">&#45;</text>
<text text-anchor="middle" x="279.6" y="-15.8" font-family="Times,serif" font-size="14.00">w₄</text>
</g>
<!-- exp&#45;&gt;decrement -->
<g id="edge3" class="edge">
<title>exp&#45;&gt;decrement</title>
<path fill="none" stroke="black" d="M250.43,-64.62C259.85,-61.74 270.81,-58.39 280.98,-55.28"/>
<polygon fill="black" stroke="black" points="282.26,-58.55 290.8,-52.28 280.22,-51.85 282.26,-58.55"/>
</g>
<!-- mul2 -->
<g id="node5" class="node">
<title>mul2</title>
<ellipse fill="white" stroke="black" cx="405.6" cy="-45" rx="27" ry="18"/>
<text text-anchor="middle" x="405.6" y="-41.3" font-family="Times,serif" font-size="14.00">×</text>
<text text-anchor="middle" x="369.6" y="-15.8" font-family="Times,serif" font-size="14.00">w₅</text>
</g>
<!-- decrement&#45;&gt;mul2 -->
<g id="edge4" class="edge">
<title>decrement&#45;&gt;mul2</title>
<path fill="none" stroke="black" d="M341.11,-38.88C350,-38.27 360.22,-38.1 369.82,-38.38"/>
<polygon fill="black" stroke="black" points="369.75,-41.88 379.91,-38.86 370.09,-34.89 369.75,-41.88"/>
</g>
<!-- decrement&#45;&gt;mul2 -->
<g id="edge7" class="edge">
<title>decrement&#45;&gt;mul2</title>
<path fill="none" stroke="black" d="M341.11,-51.12C350,-51.73 360.22,-51.9 369.82,-51.62"/>
<polygon fill="black" stroke="black" points="370.09,-55.11 379.91,-51.14 369.75,-48.12 370.09,-55.11"/>
<text text-anchor="middle" x="345.24" y="-55.55" font-family="Times,serif" font-size="14.00">conj</text>
</g>
<!-- loss -->
<g id="node7" class="node">
<title>loss</title>
<ellipse fill="#ecc6d3" stroke="black" cx="495.6" cy="-45" rx="27" ry="18"/>
<text text-anchor="middle" x="495.6" y="-41.3" font-family="Times,serif" font-size="14.00">ℒ</text>
</g>
<!-- mul2&#45;&gt;loss -->
<g id="edge5" class="edge">
<title>mul2&#45;&gt;loss</title>
<path fill="none" stroke="black" d="M433,-45C440.99,-45 449.91,-45 458.42,-45"/>
<polygon fill="black" stroke="black" points="458.51,-48.5 468.51,-45 458.51,-41.5 458.51,-48.5"/>
</g>
<!-- imag -->
<g id="node6" class="node">
<title>imag</title>
<ellipse fill="#edd9a6" stroke="black" cx="45" cy="-45" rx="27" ry="18"/>
<text text-anchor="middle" x="45" y="-41.3" font-family="Times,serif" font-size="14.00">i</text>
</g>
<!-- imag&#45;&gt;mul1 -->
<g id="edge6" class="edge">
<title>imag&#45;&gt;mul1</title>
<path fill="none" stroke="black" d="M70.05,-52.38C79.44,-55.26 90.36,-58.61 100.5,-61.72"/>
<polygon fill="black" stroke="black" points="99.7,-65.14 110.29,-64.72 101.75,-58.45 99.7,-65.14"/>
</g>
<!-- one -->
<g id="node8" class="node">
<title>one</title>
<ellipse fill="white" stroke="black" cx="225.3" cy="-18" rx="27" ry="18"/>
<text text-anchor="middle" x="225.3" y="-14.3" font-family="Times,serif" font-size="14.00">1</text>
</g>
<!-- one&#45;&gt;decrement -->
<g id="edge8" class="edge">
<title>one&#45;&gt;decrement</title>
<path fill="none" stroke="black" d="M250.43,-25.38C259.85,-28.26 270.81,-31.61 280.98,-34.72"/>
<polygon fill="black" stroke="black" points="280.22,-38.15 290.8,-37.72 282.26,-31.45 280.22,-38.15"/>
</g>
</g>
</svg>
